<?xml version="1.0" encoding="utf-8"?>
<!-- Generator: Adobe Illustrator 16.0.0, SVG Export Plug-In . SVG Version: 6.00 Build 0)  -->
<!DOCTYPE svg PUBLIC "-//W3C//DTD SVG 1.1//EN" "http://www.w3.org/Graphics/SVG/1.1/DTD/svg11.dtd">
<svg version="1.1" id="Layer_1" xmlns="http://www.w3.org/2000/svg" xmlns:xlink="http://www.w3.org/1999/xlink" x="0px" y="0px"
	 width="20px" height="20px" viewBox="0 0 20 20" enable-background="new 0 0 20 20" xml:space="preserve">
<g>
	<path fill-rule="evenodd" clip-rule="evenodd" fill="#2AB672" d="M1.549,8.829C1.627,8.66,1.762,8.608,1.943,8.608
		c1.164,0.005,2.328,0.003,3.493,0.004c0.329,0,0.417,0.084,0.417,0.416c0.001,1.318,0,2.64,0,3.961c0,0.071,0,0.141,0,0.233
		c0.083,0,0.145,0,0.208,0c1.021,0,2.042,0,3.062,0c0.334,0,0.424,0.092,0.424,0.432c0,1.458,0.001,2.917,0,4.375
		c0,0.325-0.095,0.421-0.417,0.421c-2.39,0.001-4.777,0-7.167,0.002c-0.184,0.001-0.331-0.042-0.415-0.218
		C1.549,15.099,1.549,11.963,1.549,8.829z M5.867,13.847c0,0.305,0,0.602,0,0.904c1.025,0,2.035,0,3.053,0c0-0.309,0-0.604,0-0.904
		C7.896,13.847,6.886,13.847,5.867,13.847z M5.869,16.918c0,0.318,0,0.613,0,0.905c1.028,0,2.04,0,3.046,0c0-0.309,0-0.605,0-0.905
		C7.894,16.918,6.887,16.918,5.869,16.918z M2.171,17.826c1.023,0,2.034,0,3.053,0c0-0.306,0-0.602,0-0.904
		c-1.023,0-2.034,0-3.053,0C2.171,17.225,2.171,17.516,2.171,17.826z M2.171,10.138c1.027,0,2.036,0,3.054,0
		c0-0.308,0-0.603,0-0.902c-1.024,0-2.034,0-3.054,0C2.171,9.536,2.171,9.829,2.171,10.138z M5.227,13.851c-1.024,0-2.04,0-3.056,0
		c0,0.306,0,0.598,0,0.896c1.022,0,2.037,0,3.056,0C5.227,14.438,5.227,14.148,5.227,13.851z M5.227,12.313
		c-1.026,0-2.041,0-3.049,0c0,0.313,0,0.607,0,0.896c1.026,0,2.037,0,3.049,0C5.227,12.904,5.227,12.612,5.227,12.313z
		 M8.922,16.287c0-0.306,0-0.596,0-0.894c-1.024,0-2.04,0-3.056,0c0,0.306,0,0.597,0,0.894C6.887,16.287,7.895,16.287,8.922,16.287z
		 M2.169,16.284c1.027,0,2.038,0,3.052,0c0-0.307,0-0.602,0-0.893c-1.026,0-2.036,0-3.052,0C2.169,15.692,2.169,15.979,2.169,16.284
		z M2.176,10.775c0,0.313,0,0.604,0,0.896c1.023,0,2.034,0,3.05,0c0-0.304,0-0.595,0-0.896C4.206,10.775,3.194,10.775,2.176,10.775z
		"/>
	<path fill-rule="evenodd" clip-rule="evenodd" fill="#2AB672" d="M20,18.234c-0.079,0.167-0.217,0.218-0.396,0.218
		c-3.014-0.002-6.027-0.001-9.042-0.002c-0.304,0-0.4-0.096-0.4-0.396c-0.001-3.837-0.001-7.675,0-11.51
		c0-0.296,0.093-0.391,0.384-0.391c3.021-0.001,6.041,0,9.06-0.003c0.17,0,0.304,0.045,0.396,0.191C20,10.306,20,14.271,20,18.234z
		 M19.374,17.833c0-2.877,0-5.736,0-8.594c-2.872,0-5.733,0-8.585,0c0,2.872,0,5.732,0,8.594
		C13.656,17.833,16.507,17.833,19.374,17.833z M10.784,8.597c2.874,0,5.732,0,8.593,0c0-0.613,0-1.211,0-1.817
		c-2.869,0-5.729,0-8.588,0c0,0.207,0,0.4,0,0.612c1.23,0,2.446,0,3.661,0c0,0.208,0,0.397,0,0.604c-1.226,0-2.442,0-3.666,0
		C10.784,8.206,10.784,8.394,10.784,8.597z"/>
	<path fill-rule="evenodd" clip-rule="evenodd" fill="#2AB672" d="M16.72,0c0.146,0.08,0.207,0.205,0.207,0.369
		c-0.001,1.489-0.001,2.978-0.001,4.468c0,0.017-0.005,0.035-0.013,0.068c-0.191,0-0.385,0-0.598,0c0-1.424,0-2.843,0-4.277
		c-3.491,0-6.965,0-10.462,0c0,0.067,0,0.138,0,0.208c0,1.003,0.001,2.005,0,3.008c0,0.391-0.07,0.46-0.463,0.46
		c-0.998,0-1.993,0-2.99,0c-0.071,0-0.143,0-0.23,0c0,1.028,0,2.04,0,3.083c-0.217,0-0.418,0-0.621,0c0-1.154,0-2.306,0-3.46
		c0.078-0.095,0.148-0.199,0.235-0.285C2.922,2.5,4.062,1.361,5.203,0.223C5.285,0.141,5.385,0.074,5.477,0
		C9.224,0,12.973,0,16.72,0z M5.227,1.137C4.38,1.984,3.526,2.837,2.689,3.676c0.818,0,1.673,0,2.538,0
		C5.227,2.811,5.227,1.957,5.227,1.137z"/>
	<path fill-rule="evenodd" clip-rule="evenodd" fill="#2AB672" d="M15.378,3.086c0,0.201,0,0.391,0,0.591c-1.842,0-3.672,0-5.517,0
		c0-0.197,0-0.386,0-0.591C11.697,3.086,13.529,3.086,15.378,3.086z"/>
	<path fill-rule="evenodd" clip-rule="evenodd" fill="#2AB672" d="M13.248,1.547c0.716,0,1.416,0,2.129,0c0,0.198,0,0.388,0,0.593
		c-0.703,0-1.408,0-2.129,0C13.248,1.951,13.248,1.758,13.248,1.547z"/>
	<path fill-rule="evenodd" clip-rule="evenodd" fill="#2AB672" d="M15.396,11.982c0-0.203,0-0.394,0-0.592c0.401,0,0.795,0,1.204,0
		c0,0.191,0,0.385,0,0.592C16.206,11.982,15.808,11.982,15.396,11.982z"/>
	<path fill-rule="evenodd" clip-rule="evenodd" fill="#2AB672" d="M17.239,11.982c0-0.203,0-0.392,0-0.591c0.405,0,0.803,0,1.211,0
		c0,0.197,0,0.387,0,0.591C18.051,11.982,17.653,11.982,17.239,11.982z"/>
	<path fill-rule="evenodd" clip-rule="evenodd" fill="#2AB672" d="M12.918,11.986c-0.402,0-0.795,0-1.204,0c0-0.196,0-0.388,0-0.594
		c0.397,0,0.796,0,1.204,0C12.918,11.586,12.918,11.774,12.918,11.986z"/>
	<path fill-rule="evenodd" clip-rule="evenodd" fill="#2AB672" d="M14.766,12.62c0,0.199,0,0.389,0,0.592c-0.401,0-0.799,0-1.209,0
		c0-0.195,0-0.389,0-0.592C13.956,12.62,14.351,12.62,14.766,12.62z"/>
	<path fill-rule="evenodd" clip-rule="evenodd" fill="#2AB672" d="M16.606,12.623c0,0.201,0,0.391,0,0.591c-0.404,0-0.804,0-1.21,0
		c0-0.197,0-0.387,0-0.591C15.794,12.623,16.192,12.623,16.606,12.623z"/>
	<path fill-rule="evenodd" clip-rule="evenodd" fill="#2AB672" d="M17.237,13.212c0-0.202,0-0.392,0-0.592c0.407,0,0.804,0,1.213,0
		c0,0.197,0,0.389,0,0.592C18.052,13.212,17.653,13.212,17.237,13.212z"/>
	<path fill-rule="evenodd" clip-rule="evenodd" fill="#2AB672" d="M11.713,12.618c0.41,0,0.804,0,1.207,0c0,0.199,0,0.389,0,0.592
		c-0.399,0-0.796,0-1.207,0C11.713,13.019,11.713,12.824,11.713,12.618z"/>
	<path fill-rule="evenodd" clip-rule="evenodd" fill="#2AB672" d="M12.92,13.848c0,0.199,0,0.388,0,0.59c-0.4,0-0.799,0-1.207,0
		c0-0.193,0-0.387,0-0.59C12.116,13.848,12.513,13.848,12.92,13.848z"/>
	<path fill-rule="evenodd" clip-rule="evenodd" fill="#2AB672" d="M13.552,14.437c0-0.196,0-0.386,0-0.588c0.404,0,0.803,0,1.212,0
		c0,0.193,0,0.383,0,0.588C14.369,14.437,13.971,14.437,13.552,14.437z"/>
	<path fill-rule="evenodd" clip-rule="evenodd" fill="#2AB672" d="M15.396,14.438c0-0.204,0-0.393,0-0.592c0.401,0,0.797,0,1.205,0
		c0,0.191,0,0.385,0,0.592C16.206,14.438,15.807,14.438,15.396,14.438z"/>
	<path fill-rule="evenodd" clip-rule="evenodd" fill="#2AB672" d="M17.24,13.847c0.403,0,0.796,0,1.204,0c0,0.194,0,0.388,0,0.594
		c-0.397,0-0.794,0-1.204,0C17.24,14.247,17.24,14.057,17.24,13.847z"/>
	<path fill-rule="evenodd" clip-rule="evenodd" fill="#2AB672" d="M12.92,15.075c0,0.2,0,0.389,0,0.592c-0.402,0-0.799,0-1.207,0
		c0-0.195,0-0.387,0-0.592C12.111,15.075,12.506,15.075,12.92,15.075z"/>
	<path fill-rule="evenodd" clip-rule="evenodd" fill="#2AB672" d="M13.557,15.074c0.403,0,0.798,0,1.204,0c0,0.196,0,0.39,0,0.595
		c-0.401,0-0.799,0-1.204,0C13.557,15.474,13.557,15.284,13.557,15.074z"/>
	<path fill-rule="evenodd" clip-rule="evenodd" fill="#2AB672" d="M18.45,15.075c0,0.2,0,0.39,0,0.592c-0.4,0-0.799,0-1.209,0
		c0-0.195,0-0.387,0-0.592C17.641,15.075,18.034,15.075,18.45,15.075z"/>
	<path fill-rule="evenodd" clip-rule="evenodd" fill="#2AB672" d="M11.711,16.305c0.408,0,0.801,0,1.207,0c0,0.197,0,0.387,0,0.591
		c-0.4,0-0.798,0-1.207,0C11.711,16.704,11.711,16.515,11.711,16.305z"/>
	<path fill-rule="evenodd" clip-rule="evenodd" fill="#2AB672" d="M16.606,15.081c0,0.195,0,0.385,0,0.587c-0.403,0-0.8,0-1.209,0
		c0-0.192,0-0.383,0-0.587C15.792,15.081,16.188,15.081,16.606,15.081z"/>
	<path fill-rule="evenodd" clip-rule="evenodd" fill="#2AB672" d="M15.396,16.304c0.405,0,0.797,0,1.204,0c0,0.197,0,0.391,0,0.595
		c-0.398,0-0.797,0-1.204,0C15.396,16.704,15.396,16.515,15.396,16.304z"/>
	<path fill-rule="evenodd" clip-rule="evenodd" fill="#2AB672" d="M17.239,16.304c0.41,0,0.802,0,1.207,0c0,0.197,0,0.387,0,0.591
		c-0.396,0-0.796,0-1.207,0C17.239,16.699,17.239,16.512,17.239,16.304z"/>
	<path fill-rule="evenodd" clip-rule="evenodd" fill="#2AB672" d="M14.761,11.986c-0.41,0-0.803,0-1.206,0c0-0.198,0-0.388,0-0.591
		c0.398,0,0.796,0,1.206,0C14.761,11.586,14.761,11.779,14.761,11.986z"/>
	<path fill-rule="evenodd" clip-rule="evenodd" fill="#2AB672" d="M14.764,16.308c0,0.195,0,0.384,0,0.588c-0.398,0-0.795,0-1.205,0
		c0-0.189,0-0.384,0-0.588C13.958,16.308,14.355,16.308,14.764,16.308z"/>
	<path fill-rule="evenodd" clip-rule="evenodd" fill="#2AB672" d="M13.856,10.438c0-0.2,0-0.391,0-0.59c0.306,0,0.602,0,0.908,0
		c0,0.198,0,0.388,0,0.59C14.467,10.438,14.171,10.438,13.856,10.438z"/>
	<path fill-rule="evenodd" clip-rule="evenodd" fill="#2AB672" d="M15.396,10.438c0-0.2,0-0.391,0-0.59c0.304,0,0.6,0,0.905,0
		c0,0.198,0,0.388,0,0.59C16.001,10.438,15.706,10.438,15.396,10.438z"/>
	<path fill-rule="evenodd" clip-rule="evenodd" fill="#2AB672" d="M13.223,9.853c0,0.194,0,0.384,0,0.586c-0.296,0-0.592,0-0.898,0
		c0-0.194,0-0.383,0-0.586C12.621,9.853,12.916,9.853,13.223,9.853z"/>
	<path fill-rule="evenodd" clip-rule="evenodd" fill="#2AB672" d="M17.835,9.849c0,0.205,0,0.395,0,0.595c-0.3,0-0.591,0-0.895,0
		c0-0.198,0-0.392,0-0.595C17.236,9.849,17.528,9.849,17.835,9.849z"/>
	<path fill-rule="evenodd" clip-rule="evenodd" fill="#2AB672" d="M15.088,7.982c0-0.198,0-0.387,0-0.588c0.303,0,0.599,0,0.903,0
		c0,0.194,0,0.383,0,0.588C15.699,7.982,15.404,7.982,15.088,7.982z"/>
</g>
</svg>
