<?xml version="1.0" encoding="utf-8"?>
<!-- Generator: Adobe Illustrator 16.0.0, SVG Export Plug-In . SVG Version: 6.00 Build 0)  -->
<!DOCTYPE svg PUBLIC "-//W3C//DTD SVG 1.1//EN" "http://www.w3.org/Graphics/SVG/1.1/DTD/svg11.dtd">
<svg version="1.1" id="Layer_1" xmlns="http://www.w3.org/2000/svg" xmlns:xlink="http://www.w3.org/1999/xlink" x="0px" y="0px"
	 width="20px" height="20px" viewBox="0 0 20 20" enable-background="new 0 0 20 20" xml:space="preserve">
<g>
	<path fill-rule="evenodd" clip-rule="evenodd" fill="#FFFFFF" d="M2,16.621c0-4.342,0-8.686,0-13.027
		c0.107-0.201,0.28-0.252,0.5-0.25c0.677,0.01,1.355,0.004,2.033,0.004c0.057,0,0.114,0,0.183,0c0.004-0.08,0.011-0.143,0.011-0.205
		C4.728,2.879,4.722,2.615,4.728,2.35c0.005-0.222,0.129-0.348,0.326-0.347c0.193,0,0.315,0.131,0.318,0.355
		c0.004,0.233,0.001,0.466,0.001,0.699c0,0.093,0,0.186,0,0.281c0.925,0,1.822,0,2.728,0c0.003-0.04,0.008-0.071,0.008-0.102
		c0-0.302-0.004-0.604,0.002-0.905c0.004-0.203,0.142-0.33,0.332-0.328c0.192,0.002,0.315,0.131,0.318,0.338
		c0.002,0.165,0.001,0.328,0.001,0.492c0,0.167,0,0.334,0,0.506c0.923,0,1.821,0,2.732,0c0.004-0.066,0.01-0.123,0.01-0.18
		c0-0.275-0.002-0.551,0.002-0.826c0.003-0.238,0.193-0.38,0.419-0.319c0.145,0.039,0.231,0.17,0.231,0.357
		c0.002,0.321,0.001,0.642,0.001,0.968c0.919,0,1.816,0,2.727,0c0.003-0.072,0.008-0.134,0.008-0.197
		c0.002-0.248-0.001-0.497,0-0.746C14.896,2.136,15.011,2,15.222,2.002c0.203,0.001,0.317,0.139,0.318,0.388
		c0.001,0.239-0.001,0.477,0.001,0.715c0,0.077,0.007,0.154,0.011,0.244c0.075,0,0.134,0,0.191,0c0.683,0,1.365,0.005,2.048-0.004
		c0.228-0.003,0.394,0.06,0.477,0.281c0,4.332,0,8.665,0,12.996c-0.088,0.212-0.253,0.262-0.471,0.262
		c-5.125-0.004-10.25-0.004-15.374,0C2.213,16.883,2.083,16.803,2,16.621z M10.135,16.233L10.135,16.233
		c2.408,0.001,4.818,0.001,7.227,0.001c0.244,0,0.244-0.001,0.244-0.241c0-2.985,0.002-5.972-0.001-8.958
		c0-0.346,0.068-0.323-0.319-0.324c-4.813,0-9.625,0.001-14.438-0.002c-0.163,0-0.188,0.058-0.188,0.203
		c0.003,3.035,0.002,6.067,0.002,9.103c0,0.22,0,0.219,0.214,0.219C5.296,16.233,7.715,16.233,10.135,16.233z M12.158,4.012
		c0,0.126,0.005,0.231-0.001,0.337c-0.01,0.202-0.144,0.329-0.333,0.327c-0.192-0.002-0.314-0.132-0.319-0.338
		c0-0.053-0.006-0.106,0.002-0.158C11.525,4.039,11.47,3.999,11.33,4c-0.757,0.006-1.515,0-2.272,0.003
		c-0.341,0-0.291-0.038-0.295,0.296c-0.003,0.244-0.12,0.379-0.328,0.377C8.23,4.674,8.112,4.533,8.109,4.291
		c-0.001-0.093,0-0.185,0-0.289c-0.088,0-0.146,0-0.203,0C7.16,4.002,6.414,4.002,5.667,4.003c-0.289,0-0.289,0-0.293,0.281
		c0,0.032-0.001,0.063-0.004,0.095c-0.02,0.186-0.144,0.3-0.325,0.298C4.872,4.675,4.749,4.562,4.731,4.383
		C4.724,4.31,4.722,4.235,4.728,4.161c0.01-0.124-0.039-0.163-0.164-0.162c-0.571,0.006-1.144,0.007-1.715,0
		c-0.142-0.002-0.192,0.034-0.19,0.185c0.009,0.551,0.004,1.102,0.004,1.651c0,0.232-0.001,0.23,0.234,0.23
		c3.25,0,6.5,0.001,9.751,0.001c1.583,0,3.165,0,4.749,0c0.208,0,0.209-0.002,0.209-0.21c0-0.551-0.006-1.102,0.003-1.652
		c0.002-0.157-0.035-0.21-0.201-0.207c-0.52,0.011-1.037,0.005-1.557,0.005c-0.303,0-0.303,0-0.31,0.296
		c-0.002,0.036-0.002,0.074-0.009,0.11c-0.024,0.165-0.149,0.269-0.32,0.268c-0.16-0.001-0.286-0.102-0.309-0.261
		c-0.012-0.078-0.015-0.159-0.008-0.237c0.015-0.14-0.039-0.182-0.18-0.18c-0.794,0.006-1.588,0.002-2.382,0.003
		C12.283,4.002,12.23,4.008,12.158,4.012z"/>
	<path fill-rule="evenodd" clip-rule="evenodd" fill="#FFFFFF" d="M6.051,10.779c-0.323,0-0.646,0.003-0.968-0.001
		c-0.243-0.005-0.352-0.111-0.354-0.351c-0.004-0.656-0.004-1.313,0-1.968C4.73,8.212,4.841,8.103,5.091,8.102
		c0.651-0.003,1.302-0.003,1.952,0C7.293,8.103,7.402,8.21,7.404,8.46c0.004,0.662,0.004,1.323,0,1.984
		c0,0.217-0.119,0.33-0.337,0.334C6.728,10.782,6.389,10.779,6.051,10.779z M6.759,9.447C6.76,9.447,6.76,9.447,6.759,9.447
		C6.76,9.262,6.757,9.076,6.761,8.892c0.002-0.096-0.024-0.147-0.133-0.146c-0.375,0.004-0.75,0.002-1.126,0
		c-0.095-0.001-0.13,0.04-0.13,0.133c0.002,0.375,0.004,0.75,0.001,1.125c0,0.098,0.038,0.132,0.132,0.131
		c0.375-0.004,0.751-0.004,1.126-0.001c0.097,0.001,0.132-0.038,0.129-0.132C6.757,9.816,6.759,9.632,6.759,9.447z"/>
	<path fill-rule="evenodd" clip-rule="evenodd" fill="#FFFFFF" d="M11.473,9.457c0,0.322,0.003,0.645-0.001,0.968
		c-0.005,0.241-0.111,0.351-0.351,0.354c-0.662,0.003-1.324,0.003-1.984,0c-0.219-0.001-0.339-0.115-0.341-0.332
		c-0.005-0.671-0.005-1.343,0-2.015C8.798,8.22,8.912,8.104,9.123,8.103c0.672-0.005,1.344-0.005,2.015-0.001
		c0.219,0.002,0.33,0.121,0.334,0.339C11.476,8.779,11.473,9.118,11.473,9.457z M10.118,10.134c0.189,0,0.38-0.004,0.571,0.001
		c0.103,0.003,0.141-0.038,0.139-0.141c-0.003-0.369-0.003-0.74,0-1.11c0.002-0.103-0.037-0.14-0.14-0.139
		c-0.37,0.003-0.741,0.003-1.111,0c-0.103,0-0.141,0.039-0.139,0.141c0.003,0.37,0.003,0.74,0,1.111
		c-0.001,0.103,0.037,0.142,0.14,0.139C9.758,10.13,9.938,10.134,10.118,10.134z"/>
	<path fill-rule="evenodd" clip-rule="evenodd" fill="#FFFFFF" d="M14.2,10.778c-0.327,0-0.656,0.004-0.984,0
		c-0.239-0.005-0.352-0.111-0.353-0.351c-0.003-0.662-0.003-1.322,0-1.984c0.001-0.23,0.113-0.34,0.346-0.342
		c0.66-0.003,1.322-0.003,1.984,0c0.23,0.002,0.343,0.113,0.344,0.342c0.004,0.667,0.004,1.333,0,2
		c-0.002,0.222-0.114,0.329-0.337,0.333C14.868,10.782,14.534,10.778,14.2,10.778z M14.892,9.439
		C14.893,9.439,14.893,9.439,14.892,9.439c0.001-0.189,0-0.381,0.003-0.57c0.001-0.086-0.037-0.124-0.124-0.123
		c-0.38,0.002-0.76,0.002-1.14,0.001c-0.088,0-0.124,0.036-0.122,0.123c0.001,0.38,0,0.761-0.003,1.14
		c0,0.087,0.037,0.124,0.124,0.124c0.381-0.003,0.761-0.003,1.14-0.001c0.088,0,0.125-0.035,0.123-0.123
		C14.891,9.82,14.892,9.631,14.892,9.439z"/>
	<path fill-rule="evenodd" clip-rule="evenodd" fill="#FFFFFF" d="M7.406,13.521c0,0.322,0.003,0.646-0.002,0.968
		c-0.003,0.242-0.11,0.354-0.349,0.354c-0.661,0.004-1.322,0.004-1.984,0.001c-0.225-0.001-0.342-0.117-0.344-0.345
		c-0.004-0.661-0.004-1.322,0-1.983c0.002-0.235,0.118-0.348,0.358-0.349c0.656-0.004,1.312-0.004,1.967,0
		c0.237,0.001,0.349,0.117,0.351,0.354C7.408,12.854,7.406,13.188,7.406,13.521z M5.373,13.491c0,0.19,0.003,0.381-0.001,0.571
		c-0.002,0.103,0.038,0.141,0.14,0.14c0.371-0.005,0.741-0.004,1.111,0c0.103,0.001,0.14-0.038,0.139-0.14
		c-0.004-0.371-0.004-0.741,0-1.112c0.001-0.103-0.038-0.139-0.14-0.139c-0.37,0.003-0.741,0.003-1.111,0
		c-0.103,0-0.142,0.037-0.139,0.141C5.376,13.132,5.373,13.312,5.373,13.491z"/>
	<path fill-rule="evenodd" clip-rule="evenodd" fill="#FFFFFF" d="M10.149,12.168c0.318,0,0.635-0.004,0.953,0.001
		c0.261,0.001,0.368,0.107,0.369,0.367c0.002,0.65,0.003,1.301,0,1.951c-0.002,0.249-0.111,0.356-0.363,0.357
		c-0.65,0.003-1.301,0.003-1.951,0c-0.25-0.001-0.36-0.109-0.361-0.358c-0.004-0.656-0.004-1.313,0-1.968
		c0.001-0.239,0.112-0.347,0.354-0.35C9.483,12.164,9.816,12.168,10.149,12.168z M10.825,13.522L10.825,13.522
		c0.001-0.194,0-0.391,0.002-0.586c0.001-0.086-0.035-0.124-0.123-0.124c-0.38,0.002-0.76,0.002-1.141,0.001
		c-0.086-0.001-0.123,0.034-0.123,0.122c0.002,0.38,0.001,0.761-0.001,1.141c0,0.086,0.036,0.126,0.123,0.124
		c0.38-0.002,0.76-0.003,1.14-0.001c0.087,0,0.125-0.033,0.124-0.121C10.822,13.894,10.825,13.708,10.825,13.522z"/>
	<path fill-rule="evenodd" clip-rule="evenodd" fill="#FFFFFF" d="M14.2,12.166c0.322,0,0.645-0.001,0.968,0.002
		c0.257,0.002,0.371,0.111,0.371,0.366c0.005,0.646,0.005,1.291,0,1.937c0,0.266-0.11,0.376-0.378,0.376
		c-0.641,0.002-1.281,0.002-1.921,0c-0.266,0-0.378-0.112-0.378-0.375c-0.002-0.635-0.003-1.271,0-1.905
		c0-0.299,0.1-0.396,0.402-0.398C13.576,12.164,13.888,12.166,14.2,12.166z M13.506,13.505c0,0.186,0.005,0.371,0,0.556
		c-0.003,0.102,0.034,0.143,0.139,0.142c0.369-0.004,0.739-0.004,1.11,0c0.101,0.001,0.142-0.034,0.141-0.139
		c-0.004-0.37-0.004-0.741,0-1.11c0.001-0.101-0.034-0.142-0.139-0.141c-0.369,0.002-0.739,0.002-1.11-0.001
		c-0.101,0-0.145,0.035-0.141,0.138C13.511,13.135,13.506,13.319,13.506,13.505z"/>
</g>
</svg>
