<?xml version="1.0" encoding="utf-8"?>
<!-- Generator: Adobe Illustrator 16.0.0, SVG Export Plug-In . SVG Version: 6.00 Build 0)  -->
<!DOCTYPE svg PUBLIC "-//W3C//DTD SVG 1.1//EN" "http://www.w3.org/Graphics/SVG/1.1/DTD/svg11.dtd">
<svg version="1.1" id="Layer_1" xmlns="http://www.w3.org/2000/svg" xmlns:xlink="http://www.w3.org/1999/xlink" x="0px" y="0px"
	 width="20px" height="20px" viewBox="0 0 20 20" enable-background="new 0 0 20 20" xml:space="preserve">
<g>
	<path fill-rule="evenodd" clip-rule="evenodd" fill="#FFFFFF" d="M9.034,16.922c-2.465,0-4.928,0-7.393-0.002
		c-0.821,0-1.45-0.494-1.61-1.264c-0.026-0.123-0.03-0.256-0.03-0.385C0,12.182-0.001,9.091,0,6c0-1.01,0.663-1.668,1.679-1.668
		c4.916,0,9.832,0,14.748,0c0.99,0,1.658,0.665,1.658,1.65c0.002,3.097,0.002,6.195,0,9.291c0,0.984-0.668,1.648-1.659,1.65
		C13.962,16.922,11.497,16.922,9.034,16.922z M0.784,10.242c0,0.076,0,0.143,0,0.209c0,1.598,0,3.195,0,4.793
		c0,0.578,0.306,0.885,0.887,0.885c4.916,0.002,9.83,0.002,14.746,0c0.578,0,0.886-0.307,0.886-0.887c0-1.596,0-3.195,0-4.793
		c0-0.064,0-0.131,0-0.207C11.796,10.242,6.305,10.242,0.784,10.242z M17.301,7.081c0-0.425,0.007-0.83-0.002-1.235
		c-0.007-0.211-0.107-0.387-0.266-0.53c-0.183-0.163-0.399-0.194-0.634-0.194C11.501,5.125,6.604,5.124,1.707,5.124
		c-0.056,0-0.111,0-0.166,0.002C1.164,5.143,0.833,5.4,0.803,5.773C0.768,6.205,0.795,6.64,0.795,7.081
		C6.298,7.081,11.789,7.081,17.301,7.081z M17.296,7.884c-5.513,0-11.006,0-16.5,0c0,0.526,0,1.039,0,1.551c5.506,0,11.001,0,16.5,0
		C17.296,8.914,17.296,8.406,17.296,7.884z"/>
	<path fill-rule="evenodd" clip-rule="evenodd" fill="#FFFFFF" d="M4.515,12.59c-0.559,0-1.118,0-1.676,0
		c-0.309,0-0.476-0.139-0.477-0.387c-0.001-0.25,0.17-0.396,0.469-0.396c1.143,0,2.286,0,3.428,0.002
		c0.221,0,0.378,0.121,0.418,0.313c0.037,0.178-0.061,0.371-0.232,0.436c-0.073,0.027-0.156,0.031-0.234,0.031
		C5.646,12.592,5.08,12.59,4.515,12.59z"/>
	<path fill-rule="evenodd" clip-rule="evenodd" fill="#FFFFFF" d="M3.934,13.77c0.363,0,0.725,0,1.087,0
		C5.32,13.771,5.5,13.918,5.503,14.16c0.003,0.244-0.177,0.4-0.471,0.402c-0.737,0.002-1.475,0.002-2.211,0
		c-0.285-0.002-0.457-0.152-0.46-0.391c-0.002-0.25,0.171-0.4,0.468-0.402C3.197,13.768,3.566,13.77,3.934,13.77z"/>
	<path fill-rule="evenodd" clip-rule="evenodd" fill="#FFFFFF" d="M9.058,11.807c0.246,0,0.491-0.002,0.736,0.002
		c0.251,0.002,0.424,0.158,0.429,0.383c0.005,0.234-0.167,0.396-0.432,0.398c-0.502,0.002-1.005,0.002-1.508-0.002
		c-0.253-0.002-0.42-0.162-0.419-0.389c0-0.227,0.173-0.389,0.421-0.391C8.543,11.805,8.801,11.807,9.058,11.807z"/>
</g>
</svg>
