<?xml version="1.0" encoding="utf-8"?>
<!-- Generator: Adobe Illustrator 16.0.0, SVG Export Plug-In . SVG Version: 6.00 Build 0)  -->
<!DOCTYPE svg PUBLIC "-//W3C//DTD SVG 1.1//EN" "http://www.w3.org/Graphics/SVG/1.1/DTD/svg11.dtd">
<svg version="1.1" id="Layer_1" xmlns="http://www.w3.org/2000/svg" xmlns:xlink="http://www.w3.org/1999/xlink" x="0px" y="0px"
	 width="20px" height="20px" viewBox="0 0 20 20" enable-background="new 0 0 20 20" xml:space="preserve">
<g>
	<path fill-rule="evenodd" clip-rule="evenodd" fill="#FFFFFF" d="M3.556,18.068c2.122,0,4.21,0,6.323,0c0-5.45,0-10.898,0-16.356
		c-2.599,0-5.197,0-7.816,0c0,0.144,0,0.275,0,0.407C2.062,4.642,2.062,7.163,2.062,9.686c0,0.022,0,0.045,0,0.067
		c-0.002,0.316-0.127,0.488-0.357,0.49C1.472,10.245,1.35,10.079,1.35,9.757c0-2.856,0-5.712,0-8.568
		c0-0.058,0.005-0.117,0.009-0.189c3.082,0,6.156,0,9.248,0c0,1.888,0,3.77,0,5.68c2.854,0,5.689,0,8.535,0
		c0,4.046,0,8.063,0,12.109c-0.088,0-0.166,0-0.246,0c-5.658,0-11.318,0-16.979-0.001c-0.06,0-0.119,0.004-0.177-0.002
		c-0.209-0.022-0.343-0.174-0.334-0.373c0.007-0.188,0.143-0.327,0.345-0.335c0.296-0.007,0.594-0.002,0.89-0.002
		c0.058,0,0.116,0,0.2,0c0-0.507,0.004-0.994-0.008-1.479c-0.001-0.045-0.1-0.107-0.165-0.126c-0.948-0.264-1.551-0.868-1.776-1.827
		c-0.122-0.527-0.038-1.053,0.124-1.558c0.418-1.303,1.209-2.364,2.178-3.338c0.094,0.089,0.18,0.167,0.26,0.249
		c0.901,0.926,1.641,1.954,1.979,3.223c0.22,0.827,0.2,1.632-0.339,2.355c-0.346,0.464-0.809,0.751-1.365,0.9
		c-0.066,0.017-0.164,0.094-0.165,0.146C3.551,17.095,3.556,17.568,3.556,18.068z M18.424,18.066c0-3.563,0-7.111,0-10.654
		c-2.611,0-5.203,0-7.793,0c0,3.56,0,7.102,0,10.65c0.705,0,1.398,0,2.119,0c0-1.234,0-2.453,0-3.676c1.195,0,2.363,0,3.559,0
		c0,1.232,0,2.451,0,3.68C17.025,18.066,17.715,18.066,18.424,18.066z M3.211,10.763c-0.688,0.822-1.285,1.665-1.558,2.692
		c-0.172,0.645-0.155,1.267,0.316,1.8c0.227,0.257,0.504,0.439,0.873,0.509c0-0.129,0-0.231,0-0.336c0-0.518-0.004-1.037,0-1.555
		c0.002-0.244,0.149-0.399,0.356-0.4c0.209-0.003,0.352,0.147,0.355,0.395c0.004,0.481,0,0.964,0,1.445c0,0.146,0,0.29,0,0.455
		c0.066-0.015,0.102-0.02,0.135-0.029c0.701-0.211,1.179-0.86,1.151-1.613C4.791,12.775,4.037,11.764,3.211,10.763z M13.465,18.057
		c0.719,0,1.414,0,2.117,0c0-0.992,0-1.969,0-2.957c-0.709,0-1.406,0-2.117,0C13.465,16.091,13.465,17.066,13.465,18.057z"/>
	<path fill-rule="evenodd" clip-rule="evenodd" fill="#FFFFFF" d="M7.735,3.333c0.238,0,0.475-0.004,0.711,0.001
		c0.23,0.006,0.377,0.15,0.376,0.354c-0.002,0.19-0.145,0.348-0.358,0.352C7.968,4.05,7.471,4.051,6.974,4.04
		C6.764,4.036,6.618,3.87,6.62,3.683c0.002-0.2,0.152-0.342,0.381-0.348C7.246,3.328,7.491,3.333,7.735,3.333z"/>
	<path fill-rule="evenodd" clip-rule="evenodd" fill="#FFFFFF" d="M7.722,8.542c0.237,0,0.475-0.004,0.711,0
		c0.234,0.005,0.384,0.141,0.39,0.341C8.828,9.082,8.68,9.245,8.456,9.249c-0.489,0.01-0.979,0.01-1.469,0
		C6.765,9.245,6.613,9.078,6.62,8.883c0.007-0.2,0.157-0.336,0.39-0.341C7.247,8.538,7.484,8.542,7.722,8.542z"/>
	<path fill-rule="evenodd" clip-rule="evenodd" fill="#FFFFFF" d="M7.714,14.461c-0.222,0-0.445,0.003-0.667,0
		c-0.261-0.006-0.424-0.145-0.427-0.356s0.159-0.353,0.419-0.354c0.452-0.005,0.905-0.006,1.356-0.001
		c0.267,0.001,0.425,0.135,0.428,0.347c0.002,0.22-0.167,0.361-0.441,0.364C8.159,14.464,7.936,14.462,7.714,14.461L7.714,14.461z"
		/>
	<path fill-rule="evenodd" clip-rule="evenodd" fill="#FFFFFF" d="M4.22,6.643c-0.237,0-0.474,0.003-0.711-0.001
		c-0.232-0.004-0.379-0.14-0.384-0.343C3.12,6.086,3.27,5.935,3.511,5.933c0.475-0.006,0.95-0.006,1.424,0
		C5.17,5.935,5.329,6.095,5.321,6.302C5.313,6.504,5.164,6.638,4.932,6.642C4.694,6.646,4.457,6.643,4.22,6.643z"/>
	<path fill-rule="evenodd" clip-rule="evenodd" fill="#FFFFFF" d="M7.707,6.643c-0.237,0-0.475,0.005-0.712-0.001
		C6.77,6.636,6.618,6.486,6.62,6.286c0.002-0.188,0.152-0.348,0.359-0.352c0.497-0.007,0.994-0.008,1.491,0
		c0.208,0.004,0.354,0.168,0.352,0.358C8.819,6.486,8.675,6.635,8.464,6.64C8.211,6.648,7.958,6.643,7.707,6.643z"/>
	<path fill-rule="evenodd" clip-rule="evenodd" fill="#FFFFFF" d="M7.708,11.852c-0.23-0.001-0.46,0.002-0.689-0.001
		c-0.242-0.005-0.399-0.147-0.398-0.356c0.001-0.195,0.159-0.352,0.381-0.354c0.482-0.006,0.965-0.006,1.446,0
		c0.223,0.003,0.378,0.162,0.376,0.358c-0.002,0.201-0.154,0.346-0.38,0.352C8.197,11.855,7.953,11.853,7.708,11.852z"/>
	<path fill-rule="evenodd" clip-rule="evenodd" fill="#FFFFFF" d="M4.225,8.542c0.237,0,0.474-0.004,0.711,0
		c0.231,0.006,0.38,0.144,0.384,0.344c0.004,0.196-0.146,0.359-0.37,0.363c-0.489,0.01-0.978,0.01-1.468,0
		C3.256,9.244,3.118,9.086,3.125,8.88c0.007-0.198,0.146-0.331,0.367-0.337C3.736,8.537,3.98,8.542,4.225,8.542z"/>
	<path fill-rule="evenodd" clip-rule="evenodd" fill="#FFFFFF" d="M4.24,3.333c0.237,0,0.474-0.004,0.71,0.002
		C5.168,3.342,5.311,3.477,5.321,3.67c0.01,0.198-0.14,0.367-0.361,0.371c-0.489,0.01-0.979,0.01-1.467,0.001
		C3.262,4.038,3.12,3.883,3.124,3.68c0.003-0.204,0.148-0.339,0.381-0.347C3.749,3.328,3.995,3.333,4.24,3.333
		C4.24,3.333,4.24,3.333,4.24,3.333z"/>
	<path fill-rule="evenodd" clip-rule="evenodd" fill="#FFFFFF" d="M16.277,9.999c-0.24,0-0.477,0.006-0.713-0.001
		c-0.24-0.006-0.395-0.159-0.391-0.364c0.004-0.199,0.156-0.342,0.389-0.345c0.473-0.005,0.949-0.005,1.422,0
		c0.242,0.003,0.4,0.16,0.393,0.364c-0.008,0.198-0.156,0.337-0.391,0.344C16.75,10.004,16.514,9.998,16.277,9.999L16.277,9.999z"/>
	<path fill-rule="evenodd" clip-rule="evenodd" fill="#FFFFFF" d="M12.768,9.999c-0.238,0-0.473,0.006-0.713-0.001
		c-0.234-0.009-0.373-0.142-0.379-0.351c-0.002-0.209,0.135-0.353,0.371-0.358c0.48-0.007,0.961-0.006,1.445-0.001
		c0.23,0.003,0.375,0.147,0.377,0.349c0.004,0.212-0.145,0.352-0.391,0.359C13.24,10.004,13.004,9.998,12.768,9.999
		C12.768,9.998,12.768,9.998,12.768,9.999z"/>
	<path fill-rule="evenodd" clip-rule="evenodd" fill="#FFFFFF" d="M12.773,11.893c0.236,0,0.477-0.005,0.713,0
		c0.232,0.004,0.379,0.14,0.383,0.345c0.008,0.212-0.145,0.362-0.385,0.364c-0.477,0.006-0.949,0.006-1.426,0.001
		c-0.236-0.003-0.387-0.153-0.383-0.367c0.008-0.206,0.152-0.339,0.385-0.343C12.301,11.888,12.537,11.892,12.773,11.893z"/>
	<path fill-rule="evenodd" clip-rule="evenodd" fill="#FFFFFF" d="M16.293,11.893c0.23,0,0.459-0.004,0.688,0
		c0.238,0.004,0.398,0.152,0.396,0.356c-0.004,0.205-0.162,0.351-0.4,0.354c-0.465,0.004-0.934,0.004-1.396,0.001
		c-0.25-0.002-0.418-0.16-0.406-0.37c0.008-0.203,0.17-0.34,0.41-0.342c0.234-0.003,0.475-0.002,0.709-0.002
		C16.293,11.892,16.293,11.892,16.293,11.893z"/>
</g>
</svg>
