<?xml version="1.0" encoding="utf-8"?>
<!-- Generator: Adobe Illustrator 16.0.0, SVG Export Plug-In . SVG Version: 6.00 Build 0)  -->
<!DOCTYPE svg PUBLIC "-//W3C//DTD SVG 1.1//EN" "http://www.w3.org/Graphics/SVG/1.1/DTD/svg11.dtd">
<svg version="1.1" id="Layer_1" xmlns="http://www.w3.org/2000/svg" xmlns:xlink="http://www.w3.org/1999/xlink" x="0px" y="0px"
	 width="20px" height="20px" viewBox="-2.5 -2.5 20 20" enable-background="new -2.5 -2.5 20 20" xml:space="preserve">
<g>
	<path fill="#E11D41" d="M6.874-2.5C1.706-2.5-2.5,1.703-2.5,6.871c0,5.172,4.206,9.379,9.374,9.379
		c5.167,0,9.375-4.207,9.375-9.379C16.248,1.703,12.041-2.5,6.874-2.5z M6.874,14.641c-4.284,0-7.766-3.487-7.766-7.77
		c0-4.279,3.482-7.766,7.766-7.766c4.283,0,7.765,3.487,7.765,7.766C14.639,11.153,11.156,14.641,6.874,14.641z"/>
	<path fill="#E11D41" d="M10.498,3.246c-0.313-0.313-0.818-0.313-1.131,0L6.874,5.739L4.38,3.246c-0.313-0.313-0.817-0.313-1.132,0
		c-0.318,0.313-0.318,0.824,0,1.137l2.489,2.494L3.248,9.363c-0.318,0.313-0.318,0.823,0,1.138c0.155,0.157,0.362,0.234,0.566,0.234
		c0.204,0,0.413-0.077,0.565-0.234l2.494-2.488l2.494,2.488c0.154,0.157,0.361,0.234,0.564,0.234s0.414-0.077,0.566-0.234
		c0.318-0.314,0.318-0.824,0-1.138L8.01,6.876l2.488-2.494C10.816,4.07,10.816,3.559,10.498,3.246z"/>
</g>
</svg>
