<?xml version="1.0" encoding="utf-8"?>
<!-- Generator: Adobe Illustrator 16.0.0, SVG Export Plug-In . SVG Version: 6.00 Build 0)  -->
<!DOCTYPE svg PUBLIC "-//W3C//DTD SVG 1.1//EN" "http://www.w3.org/Graphics/SVG/1.1/DTD/svg11.dtd">
<svg version="1.1" id="Layer_1" xmlns="http://www.w3.org/2000/svg" xmlns:xlink="http://www.w3.org/1999/xlink" x="0px" y="0px"
	 width="20px" height="20px" viewBox="0 0 20 20" enable-background="new 0 0 20 20" xml:space="preserve">
<g>
	<path fill-rule="evenodd" clip-rule="evenodd" fill="#FFFFFF" d="M0,8.652c0.328-0.586,0.618-1.199,0.99-1.755
		C1.9,5.536,3.112,4.499,4.564,3.744C4.769,3.637,4.925,3.667,5.01,3.825C5.093,3.981,5.032,4.13,4.824,4.238
		C3.88,4.729,3.042,5.359,2.313,6.134c-0.075,0.081-0.147,0.163-0.206,0.27c0.032-0.015,0.067-0.024,0.095-0.045
		C3.28,5.574,4.48,5.067,5.792,4.843c1.748-0.298,3.442-0.101,5.065,0.633c0.872,0.396,1.661,0.917,2.36,1.573
		c0.07,0.067,0.147,0.168,0.149,0.255c0.003,0.083-0.072,0.216-0.146,0.243c-0.09,0.032-0.237,0.013-0.315-0.044
		c-0.285-0.21-0.543-0.458-0.829-0.668C8.436,4.164,3.281,5.001,0.665,8.683C0.633,8.728,0.602,8.773,0.57,8.817
		C0.379,9.078,0.205,9.084,0,8.836C0,8.775,0,8.714,0,8.652z"/>
	<path fill-rule="evenodd" clip-rule="evenodd" fill="#FFFFFF" d="M18.84,12.555c-0.096,0.15-0.237,0.186-0.409,0.186
		c-0.889-0.006-1.777-0.002-2.667-0.004c-0.271,0-0.354-0.066-0.39-0.33c-0.136-1.018-0.438-1.982-0.931-2.886
		c-0.075-0.141-0.099-0.28,0.035-0.399c0.151-0.137,0.345-0.075,0.459,0.143c0.332,0.624,0.6,1.275,0.771,1.961
		c0.077,0.309,0.137,0.621,0.206,0.943c0.778,0,1.559,0,2.381,0c-0.059-0.469-0.095-0.926-0.175-1.375
		c-0.281-1.556-0.929-2.947-1.926-4.174c-0.046-0.058-0.095-0.114-0.136-0.174c-0.101-0.147-0.087-0.299,0.029-0.397
		c0.124-0.104,0.288-0.094,0.404,0.054c0.258,0.327,0.522,0.651,0.749,0.999c0.918,1.407,1.444,2.952,1.567,4.63
		c0.004,0.055,0.021,0.107,0.031,0.16C18.84,12.111,18.84,12.332,18.84,12.555z"/>
	<path fill-rule="evenodd" clip-rule="evenodd" fill="#FFFFFF" d="M7.654,15.6c-0.001-0.375,0.155-0.686,0.382-0.971
		c1.702-2.146,3.401-4.295,5.102-6.442c0.852-1.077,1.703-2.152,2.556-3.229c0.034-0.042,0.067-0.087,0.107-0.124
		c0.103-0.093,0.219-0.113,0.337-0.037c0.126,0.08,0.155,0.199,0.109,0.337c-0.017,0.051-0.046,0.099-0.07,0.148
		c-1.944,3.619-3.888,7.237-5.83,10.856c-0.223,0.416-0.53,0.721-1.002,0.822C8.465,17.154,7.659,16.502,7.654,15.6z M14.162,7.848
		c-0.009-0.004-0.016-0.009-0.023-0.015c-0.042,0.049-0.083,0.097-0.123,0.146c-1.556,1.965-3.111,3.929-4.666,5.896
		c-0.331,0.416-0.668,0.83-0.985,1.26c-0.217,0.291-0.205,0.658-0.004,0.943c0.201,0.287,0.544,0.42,0.889,0.334
		c0.306-0.076,0.477-0.297,0.617-0.561c1.371-2.557,2.745-5.111,4.118-7.668C14.043,8.071,14.103,7.96,14.162,7.848z"/>
	<path fill-rule="evenodd" clip-rule="evenodd" fill="#FFFFFF" d="M9.076,3.219C7.958,3.229,6.937,3.398,5.948,3.754
		C5.925,3.763,5.901,3.77,5.878,3.778C5.615,3.872,5.464,3.833,5.396,3.654C5.329,3.481,5.427,3.343,5.687,3.251
		c2.315-0.823,4.623-0.786,6.916,0.078c0.783,0.295,1.507,0.707,2.187,1.193c0.153,0.112,0.19,0.265,0.104,0.397
		c-0.092,0.139-0.257,0.172-0.418,0.061c-0.582-0.399-1.186-0.758-1.838-1.031c-1.009-0.422-2.057-0.67-3.151-0.712
		C9.326,3.231,9.167,3.223,9.076,3.219z"/>
	<path fill-rule="evenodd" clip-rule="evenodd" fill="#FFFFFF" d="M8.946,15.975c-0.153,0.004-0.277-0.123-0.277-0.281
		c0-0.148,0.118-0.268,0.268-0.27c0.149-0.004,0.269,0.111,0.277,0.262C9.221,15.84,9.099,15.971,8.946,15.975z"/>
</g>
</svg>
