<?xml version="1.0" encoding="utf-8"?>
<!-- Generator: Adobe Illustrator 16.0.0, SVG Export Plug-In . SVG Version: 6.00 Build 0)  -->
<!DOCTYPE svg PUBLIC "-//W3C//DTD SVG 1.1//EN" "http://www.w3.org/Graphics/SVG/1.1/DTD/svg11.dtd">
<svg version="1.1" id="Layer_1" xmlns="http://www.w3.org/2000/svg" xmlns:xlink="http://www.w3.org/1999/xlink" x="0px" y="0px"
	 width="25px" height="25px" viewBox="0 0 25 25" enable-background="new 0 0 25 25" xml:space="preserve">
<g>
	<path fill-rule="evenodd" clip-rule="evenodd" fill="#2AB672" d="M7.546,4.705c1.059,0,2.059,0,3.058,0
		c0.083,0,0.167-0.005,0.25,0.002c0.249,0.022,0.424,0.203,0.426,0.43c0.002,0.224-0.176,0.418-0.422,0.434
		c-0.221,0.014-0.444,0.004-0.667,0.004c-0.871,0-1.741,0-2.611,0c-0.09,0-0.181,0.008-0.285,0.012c0,2.67,0,5.322,0,7.992
		c4.293,0,8.576,0,12.878,0c0-2.66,0-5.313,0-8.005c-0.099,0-0.196,0-0.295,0c-1.056,0-2.111,0.002-3.167-0.001
		c-0.313,0-0.512-0.168-0.519-0.422c-0.009-0.264,0.196-0.446,0.521-0.447c0.954-0.003,1.908,0,2.862,0c0.101,0,0.202,0,0.337,0
		c-0.029-0.089-0.043-0.158-0.072-0.219c-0.282-0.602-0.575-1.2-0.848-1.808c-0.078-0.174-0.175-0.222-0.357-0.22
		c-0.777,0.01-1.556,0.005-2.333,0.004c-0.353-0.001-0.56-0.169-0.555-0.442c0.005-0.263,0.209-0.427,0.542-0.427
		c0.917-0.002,1.834,0.004,2.75-0.004c0.288-0.002,0.464,0.119,0.582,0.376c0.442,0.957,0.896,1.908,1.336,2.866
		c0.059,0.128,0.101,0.279,0.101,0.419c0.007,2.862,0.006,5.723,0.006,8.584c0,0.505-0.133,0.635-0.646,0.635
		c-4.464,0-8.927,0-13.391,0c-0.476,0-0.617-0.141-0.617-0.606c0-2.871-0.001-5.741,0.001-8.612c0-0.116,0.014-0.245,0.064-0.346
		c0.488-0.986,0.991-1.965,1.477-2.953C8.08,1.693,8.256,1.586,8.542,1.589c1.037,0.01,2.074,0.005,3.111,0.003
		c0.211,0,0.41,0.054,0.465,0.269c0.034,0.133,0.018,0.335-0.064,0.426c-0.095,0.105-0.287,0.166-0.438,0.169
		C10.719,2.471,9.82,2.47,8.922,2.459C8.724,2.456,8.628,2.524,8.545,2.698C8.229,3.354,7.897,4.002,7.546,4.705z"/>
	<path fill-rule="evenodd" clip-rule="evenodd" fill="#2AB672" d="M14.209,18.479c-0.57-0.259-1.109-0.522-1.662-0.749
		c-0.939-0.385-1.872-0.799-2.837-1.101c-0.812-0.254-1.646-0.146-2.441,0.195c-1.605,0.689-3.216,1.368-4.823,2.053
		c-0.091,0.039-0.18,0.085-0.293,0.141c0.498,1.006,0.987,1.996,1.49,3.016c0.217-0.136,0.403-0.253,0.59-0.37
		c0.745-0.467,1.485-0.942,2.241-1.391c0.15-0.089,0.385-0.142,0.543-0.092c1.665,0.527,3.343,1.024,4.973,1.646
		c1.07,0.407,2.04,0.35,3.009-0.178c2.331-1.27,4.654-2.552,6.981-3.829c0.031-0.018,0.056-0.044,0.105-0.084
		c-0.347-0.342-0.766-0.426-1.179-0.287c-0.849,0.283-1.686,0.605-2.512,0.948c-0.684,0.282-1.345,0.617-2.016,0.928
		c-0.143,0.066-0.285,0.132-0.43,0.192c-0.372,0.158-0.633,0.102-0.74-0.155c-0.113-0.274,0.018-0.473,0.394-0.64
		c1.283-0.572,2.558-1.164,3.85-1.718c0.609-0.261,1.237-0.506,1.925-0.465c0.768,0.046,1.326,0.423,1.688,1.093
		c0.158,0.293,0.093,0.517-0.197,0.677c-2.503,1.379-5.005,2.762-7.516,4.125c-0.725,0.394-1.507,0.636-2.346,0.538
		c-0.354-0.042-0.704-0.149-1.045-0.26c-1.626-0.528-3.247-1.071-4.875-1.595c-0.126-0.04-0.316-0.01-0.432,0.061
		c-0.948,0.577-1.886,1.173-2.828,1.761c-0.399,0.249-0.608,0.189-0.815-0.228c-0.587-1.185-1.174-2.37-1.759-3.556
		c-0.227-0.459-0.161-0.641,0.306-0.839c1.769-0.753,3.541-1.501,5.307-2.261c1.109-0.478,2.255-0.582,3.384-0.179
		c1.216,0.435,2.395,0.974,3.584,1.479c0.357,0.152,0.695,0.346,1.039,0.527c0.238,0.125,0.318,0.335,0.244,0.586
		c-0.156,0.526-0.479,0.914-1.001,1.11c-0.116,0.044-0.256,0.06-0.38,0.047c-1.149-0.125-2.298-0.259-3.446-0.39
		c-0.055-0.006-0.11-0.014-0.165-0.025c-0.25-0.056-0.402-0.247-0.375-0.471c0.028-0.232,0.207-0.394,0.468-0.373
		c0.673,0.055,1.345,0.12,2.017,0.192c0.525,0.057,1.047,0.126,1.568,0.202C14.007,18.794,14.113,18.704,14.209,18.479z"/>
	<path fill-rule="evenodd" clip-rule="evenodd" fill="#2AB672" d="M12.19,7.335c0-0.703-0.038-1.41,0.011-2.11
		c0.043-0.614,0.18-1.223,0.282-1.833C12.561,2.928,12.649,2.465,12.728,2c0.048-0.288,0.225-0.409,0.503-0.408
		c0.518,0,1.036-0.003,1.555,0.002c0.315,0.003,0.457,0.149,0.504,0.47c0.139,0.97,0.283,1.938,0.424,2.908
		c0.012,0.082,0.015,0.166,0.015,0.249c0.001,1.408,0.001,2.814,0,4.222c0,0.432-0.148,0.578-0.587,0.579
		c-0.796,0.001-1.592,0.001-2.389,0c-0.408,0-0.562-0.156-0.563-0.575C12.188,8.742,12.189,8.039,12.19,7.335
		C12.189,7.335,12.189,7.335,12.19,7.335z M13.079,5.588c0,1.202,0,2.371,0,3.546c0.597,0,1.174,0,1.754,0c0-1.193,0-2.369,0-3.546
		C14.237,5.588,13.667,5.588,13.079,5.588z M13.52,2.477c-0.128,0.753-0.25,1.477-0.373,2.202c0.57,0,1.099,0,1.645,0
		c-0.109-0.754-0.215-1.481-0.32-2.202C14.133,2.477,13.84,2.477,13.52,2.477z"/>
</g>
</svg>
