<?xml version="1.0" encoding="utf-8"?>
<!-- Generator: Adobe Illustrator 16.0.0, SVG Export Plug-In . SVG Version: 6.00 Build 0)  -->
<!DOCTYPE svg PUBLIC "-//W3C//DTD SVG 1.1//EN" "http://www.w3.org/Graphics/SVG/1.1/DTD/svg11.dtd">
<svg version="1.1" id="Layer_1" xmlns="http://www.w3.org/2000/svg" xmlns:xlink="http://www.w3.org/1999/xlink" x="0px" y="0px"
	 width="20px" height="20px" viewBox="0 0 20 20" enable-background="new 0 0 20 20" xml:space="preserve">
<g>
	<path fill-rule="evenodd" clip-rule="evenodd" fill="#FFFFFF" d="M9.67,1.403c4.581,0.022,8.517,3.756,8.518,8.534
		c0.002,4.707-3.84,8.534-8.534,8.532c-4.7-0.002-8.523-3.837-8.528-8.521C1.121,5.181,5.052,1.414,9.67,1.403z M15.883,5.268
		c-0.65,0.546-1.359,0.957-2.069,1.27c0.176,1.013,0.349,2,0.524,3.009c0.081,0,0.2-0.002,0.32,0.001
		c0.253,0.006,0.42,0.156,0.426,0.377c0.005,0.232-0.159,0.395-0.419,0.403c-0.112,0.005-0.226,0.001-0.354,0.001
		c0,0.075,0.001,0.128,0,0.181c-0.012,0.919-0.115,1.826-0.333,2.718c-0.032,0.131-0.006,0.179,0.112,0.246
		c0.514,0.296,1.018,0.608,1.521,0.918c0.097,0.059,0.178,0.139,0.273,0.214c0.937-1.28,1.432-2.694,1.518-4.276
		c-0.084,0-0.149,0-0.215,0c-0.303,0-0.605,0.004-0.908-0.002c-0.252-0.005-0.411-0.162-0.412-0.39
		c-0.002-0.225,0.161-0.383,0.411-0.389c0.218-0.006,0.437-0.002,0.654-0.002c0.154,0,0.309,0,0.472,0
		C17.313,7.96,16.821,6.547,15.883,5.268z M9.258,10.344c-1.168,0-2.316,0-3.477,0c0,0.079-0.001,0.145,0,0.21
		c0.016,0.862,0.11,1.716,0.319,2.553c0.399,1.601,1.108,3.037,2.22,4.272c0.275,0.306,0.598,0.273,0.934,0.303
		c0-1.473,0-2.923,0-4.381c-0.06,0-0.108-0.005-0.155,0.001c-0.551,0.074-1.103,0.145-1.653,0.227
		c-0.25,0.036-0.448-0.075-0.496-0.306c-0.044-0.21,0.083-0.403,0.318-0.449c0.344-0.069,0.689-0.131,1.037-0.178
		c0.316-0.043,0.634-0.062,0.953-0.091C9.258,11.78,9.258,11.067,9.258,10.344z M9.266,6.578c0-0.088,0-0.155,0-0.221
		c0-0.472-0.002-0.945,0.002-1.418C9.27,4.685,9.42,4.519,9.643,4.513c0.241-0.007,0.402,0.16,0.404,0.433
		c0.004,0.479,0.001,0.958,0.002,1.437c0,0.064,0.006,0.128,0.01,0.196c0.95-0.034,1.856-0.185,2.746-0.484
		c-0.016-0.054-0.022-0.089-0.034-0.122c-0.466-1.304-1.118-2.508-1.961-3.606c-0.054-0.069-0.169-0.126-0.257-0.128
		C9.959,2.226,9.367,2.232,8.774,2.23c-0.133,0-0.222,0.058-0.301,0.165C7.785,3.316,7.212,4.303,6.777,5.368
		C6.683,5.602,6.596,5.839,6.499,6.09C7.404,6.395,8.31,6.546,9.266,6.578z M7.266,17.329c-1.573-2.099-2.25-4.44-2.267-6.984
		c-1.041,0-2.061,0-3.089,0c0.092,1.577,0.584,2.991,1.52,4.261c0.062-0.05,0.106-0.091,0.155-0.124
		c0.282-0.197,0.559-0.403,0.852-0.585c0.185-0.116,0.414-0.036,0.517,0.146c0.1,0.177,0.05,0.39-0.124,0.513
		c-0.06,0.042-0.126,0.073-0.186,0.114c-0.238,0.171-0.475,0.344-0.726,0.526C4.857,16.207,5.949,16.901,7.266,17.329z M3.432,5.269
		c-0.939,1.28-1.435,2.696-1.52,4.269c1.051,0,2.079,0,3.065,0c0.176-1.004,0.348-1.991,0.525-3
		C4.787,6.223,4.078,5.812,3.432,5.269z M10.059,17.686c0.123-0.01,0.237-0.031,0.349-0.026c0.247,0.012,0.432-0.091,0.576-0.281
		c0.341-0.448,0.706-0.879,1.016-1.348c0.44-0.668,0.757-1.401,1.004-2.179c-0.955-0.345-1.93-0.518-2.944-0.552
		C10.059,14.765,10.059,16.216,10.059,17.686z M13.533,10.342c-1.172,0-2.319,0-3.475,0c0,0.729,0,1.445,0,2.175
		c1.082,0.045,2.131,0.228,3.154,0.588C13.437,12.189,13.532,11.279,13.533,10.342z M6.274,6.833C6.02,7.728,5.871,8.62,5.812,9.534
		c1.161,0,2.301,0,3.442,0c0-0.731,0-1.447,0-2.174C8.235,7.318,7.25,7.154,6.274,6.833z M10.059,9.531c1.161,0,2.301,0,3.446,0
		c-0.067-0.922-0.21-1.813-0.459-2.672c-0.51,0.119-0.993,0.254-1.486,0.339c-0.492,0.086-0.993,0.125-1.501,0.185
		C10.059,8.091,10.059,8.808,10.059,9.531z M11.862,2.491c0.714,1.064,1.254,2.157,1.667,3.325c0.684-0.298,1.295-0.665,1.857-1.144
		C14.415,3.625,13.263,2.912,11.862,2.491z M7.402,2.528C6.043,2.916,4.894,3.629,3.927,4.672c0.566,0.483,1.179,0.849,1.859,1.144
		C6.196,4.648,6.736,3.56,7.402,2.528z M12.044,17.332c1.321-0.433,2.417-1.126,3.342-2.125c-0.507-0.439-1.058-0.775-1.665-1.059
		C13.336,15.296,12.797,16.343,12.044,17.332z"/>
	<path fill-rule="evenodd" clip-rule="evenodd" fill="#FFFFFF" d="M9.657,3.729c-0.209,0-0.384-0.168-0.389-0.375
		c-0.006-0.213,0.175-0.396,0.39-0.396c0.207,0,0.384,0.171,0.39,0.377C10.053,3.55,9.875,3.729,9.657,3.729z"/>
</g>
</svg>
