<?xml version="1.0" encoding="utf-8"?>
<!-- Generator: Adobe Illustrator 16.0.0, SVG Export Plug-In . SVG Version: 6.00 Build 0)  -->
<!DOCTYPE svg PUBLIC "-//W3C//DTD SVG 1.1//EN" "http://www.w3.org/Graphics/SVG/1.1/DTD/svg11.dtd">
<svg version="1.1" id="Layer_1" xmlns="http://www.w3.org/2000/svg" xmlns:xlink="http://www.w3.org/1999/xlink" x="0px" y="0px"
	 width="20px" height="20px" viewBox="0 0 20 20" enable-background="new 0 0 20 20" xml:space="preserve">
<g>
	<path fill-rule="evenodd" clip-rule="evenodd" fill="#FFFFFF" d="M16.977,15.863c-4.561,0-9.12,0-13.678,0
		c-0.031-0.013-0.061-0.027-0.093-0.033c-1.136-0.212-1.93-1.139-1.93-2.257c0-2.632-0.006-5.264,0.002-7.897
		C1.282,4.737,1.745,4.048,2.604,3.62c0.216-0.108,0.462-0.158,0.695-0.233c4.558,0,9.117,0,13.678,0
		c0.033,0.012,0.07,0.029,0.107,0.035C18.184,3.626,19,4.579,19,5.659c0,2.638,0,5.277,0,7.915c0,0.946-0.586,1.782-1.498,2.131
		C17.332,15.771,17.15,15.812,16.977,15.863z M2.507,4.47c0.031,0.035,0.049,0.055,0.069,0.074c2.478,2.398,4.957,4.795,7.436,7.194
		c0.207,0.198,0.375,0.195,0.58,0c0.953-0.918,1.904-1.838,2.855-2.757c1.387-1.338,2.771-2.679,4.156-4.016
		c0.109-0.106,0.23-0.202,0.352-0.304c-0.389-0.434-0.84-0.624-1.385-0.624C13.184,4.038,9.795,4.038,6.408,4.038
		c-0.912,0-1.823-0.002-2.734,0C3.235,4.04,2.847,4.173,2.507,4.47z M13.203,10.154c-0.049,0.046-0.09,0.08-0.129,0.12
		c-0.676,0.653-1.35,1.308-2.029,1.961c-0.439,0.423-1.049,0.417-1.486-0.008c-0.707-0.685-1.416-1.368-2.125-2.055
		c-0.045-0.042-0.093-0.085-0.115-0.106c-1.625,1.57-3.234,3.127-4.849,4.688c0.338,0.311,0.758,0.457,1.242,0.457
		C7.2,15.21,10.688,15.21,14.176,15.21c0.813,0,1.621,0.005,2.432,0c0.502-0.001,0.928-0.179,1.262-0.529
		C16.314,13.172,14.764,11.67,13.203,10.154z M6.76,9.574C5.213,8.072,3.655,6.56,2.059,5.013C2.019,5.252,1.951,5.468,1.95,5.684
		c-0.007,2.628-0.006,5.256,0,7.885c0,0.188,0.054,0.375,0.086,0.576C3.633,12.599,5.204,11.08,6.76,9.574z M18.279,5.273
		c-1.539,1.489-3.049,2.95-4.539,4.39c1.494,1.444,2.998,2.899,4.523,4.374c0.021-0.166,0.063-0.335,0.063-0.506
		c0.004-2.604,0.004-5.213,0-7.821C18.326,5.572,18.297,5.434,18.279,5.273z"/>
</g>
</svg>
