<?xml version="1.0" encoding="utf-8"?>
<!-- Generator: Adobe Illustrator 16.0.0, SVG Export Plug-In . SVG Version: 6.00 Build 0)  -->
<!DOCTYPE svg PUBLIC "-//W3C//DTD SVG 1.1//EN" "http://www.w3.org/Graphics/SVG/1.1/DTD/svg11.dtd">
<svg version="1.1" id="Layer_1" xmlns="http://www.w3.org/2000/svg" xmlns:xlink="http://www.w3.org/1999/xlink" x="0px" y="0px"
	 width="20px" height="20px" viewBox="0 0 20 20" enable-background="new 0 0 20 20" xml:space="preserve">
<path fill-rule="evenodd" clip-rule="evenodd" fill="#FFFFFF" d="M13.581,11.651c-0.16,0-0.307,0-0.462,0
	c-0.029-1.021-0.435-1.856-1.25-2.476c-0.604-0.459-1.296-0.655-2.053-0.61c-1.615,0.097-2.92,1.488-2.893,3.082
	c-0.15,0-0.3,0-0.45,0C6.427,10.498,7.146,8.89,8.889,8.275C8.059,7.767,7.615,7.04,7.649,6.06c0.022-0.653,0.292-1.205,0.774-1.643
	c1.012-0.92,2.562-0.808,3.433,0.249c0.474,0.574,0.639,1.24,0.497,1.97c-0.142,0.727-0.561,1.264-1.205,1.639
	c0.726,0.254,1.313,0.682,1.758,1.298C13.353,10.189,13.571,10.881,13.581,11.651z M10.017,4.26c-1.062,0.009-1.915,0.871-1.91,1.93
	c0.005,1.046,0.875,1.908,1.922,1.902c1.056-0.006,1.921-0.877,1.909-1.921C11.926,5.108,11.064,4.253,10.017,4.26z"/>
<path fill-rule="evenodd" clip-rule="evenodd" fill="#FFFFFF" d="M17.307,18.03c-4.281,0-10.342,0-14.622,0
	c-0.056-0.18-0.16-0.357-0.161-0.537c-0.008-4.936-0.008-9.87,0-14.806c0-0.179,0.104-0.357,0.161-0.537c4.28,0,10.34,0,14.622,0
	c0.076,0.157,0.219,0.313,0.22,0.47c0.011,4.98,0.011,9.961,0,14.941C17.525,17.718,17.383,17.874,17.307,18.03z M16.854,17.352
	c0-4.846,0-9.677,0-14.516c-3.967,0-9.699,0-13.651,0c0,4.852,0,9.682,0,14.516C7.168,17.352,12.894,17.352,16.854,17.352z"/>
<path fill-rule="evenodd" clip-rule="evenodd" fill="#FFFFFF" d="M15.269,15.353c0,0.211-0.171,0.382-0.382,0.382H5.166
	c-0.211,0-0.382-0.171-0.382-0.382l0,0c0-0.21,0.171-0.383,0.382-0.383h9.721C15.098,14.97,15.269,15.143,15.269,15.353
	L15.269,15.353z"/>
<path fill-rule="evenodd" clip-rule="evenodd" fill="#FFFFFF" d="M15.269,13.357c0,0.211-0.171,0.382-0.382,0.382H5.166
	c-0.211,0-0.382-0.171-0.382-0.382l0,0c0-0.212,0.171-0.383,0.382-0.383h9.721C15.098,12.975,15.269,13.146,15.269,13.357
	L15.269,13.357z"/>
</svg>
