<?xml version="1.0" encoding="utf-8"?>
<!-- Generator: Adobe Illustrator 16.0.0, SVG Export Plug-In . SVG Version: 6.00 Build 0)  -->
<!DOCTYPE svg PUBLIC "-//W3C//DTD SVG 1.1//EN" "http://www.w3.org/Graphics/SVG/1.1/DTD/svg11.dtd">
<svg version="1.1" id="Layer_1" xmlns="http://www.w3.org/2000/svg" xmlns:xlink="http://www.w3.org/1999/xlink" x="0px" y="0px"
	 width="20px" height="20px" viewBox="0 0 20 20" enable-background="new 0 0 20 20" xml:space="preserve">
<g>
	<path fill-rule="evenodd" clip-rule="evenodd" fill="#E11D41" d="M10.127,0.472c0.311,0.08,0.604,0.192,0.828,0.431
		c0.285,0.298,0.404,0.659,0.408,1.064c0,0.104,0,0.207,0,0.289c0.254-0.063,0.494-0.158,0.75-0.181
		c0.725-0.065,1.414,0.537,1.449,1.266c0.021,0.455,0.004,0.913,0.004,1.398c0.072-0.031,0.113-0.046,0.152-0.068
		c0.896-0.483,1.947,0.074,2.047,1.087c0.012,0.127,0.021,0.255,0.021,0.383c0.002,2.407,0.004,4.813,0.004,7.223
		c-0.002,2.552-1.674,4.861-4.137,5.566c-2.326,0.666-4.373,0.101-6.061-1.646c-0.891-0.922-1.373-2.056-1.53-3.327
		c-0.03-0.247-0.04-0.497-0.041-0.746C4.02,11.426,4.021,9.638,4.022,7.852c0-0.602,0.236-1.077,0.784-1.361
		c0.431-0.22,0.868-0.209,1.297,0.01c0.041,0.022,0.084,0.045,0.154,0.084c0-0.09,0-0.153,0-0.217c0-0.938-0.002-1.877,0.001-2.816
		c0.002-0.604,0.248-1.075,0.797-1.352c0.43-0.216,0.869-0.21,1.301,0.008c0.038,0.019,0.075,0.041,0.112,0.06
		c0.004,0.002,0.012,0,0.046,0c0-0.097,0-0.196,0-0.294c0.004-0.781,0.431-1.308,1.198-1.479C9.73,0.492,9.745,0.48,9.761,0.472
		C9.883,0.472,10.006,0.472,10.127,0.472z M10.76,9.479c0-0.076,0-0.142,0-0.207c0-2.415,0-4.827,0-7.242
		c0-0.079,0-0.157-0.008-0.236C10.713,1.362,10.301,1.03,9.87,1.078C9.397,1.13,9.108,1.47,9.108,1.985c0,1.75,0,3.499,0,5.246
		c0,0.074,0.02,0.164-0.015,0.216C9.035,7.536,8.954,7.632,8.86,7.67C8.739,7.719,8.615,7.656,8.558,7.53
		c-0.032-0.075-0.04-0.165-0.041-0.248C8.514,6.495,8.515,5.71,8.515,4.923c0-0.482,0.004-0.963-0.001-1.444
		C8.509,3.109,8.306,2.819,7.986,2.698C7.672,2.579,7.316,2.665,7.082,2.914C6.901,3.105,6.858,3.335,6.86,3.588
		c0.002,2.7,0,5.401,0,8.099c0,0.365,0,0.365,0.348,0.435c1.272,0.261,2.176,0.985,2.714,2.166c0.21,0.46,0.302,0.948,0.308,1.453
		c0.004,0.203-0.105,0.333-0.275,0.348c-0.167,0.013-0.293-0.109-0.316-0.306c-0.009-0.086-0.004-0.173-0.019-0.256
		c-0.043-0.239-0.07-0.483-0.141-0.716c-0.354-1.147-1.412-2.087-2.819-2.15c-0.322-0.016-0.402-0.108-0.402-0.431
		c0-0.6,0-1.196,0-1.793c0-0.872-0.001-1.743,0.001-2.615c0-0.264-0.069-0.495-0.269-0.674C5.736,6.918,5.437,6.869,5.125,7
		C4.771,7.146,4.618,7.439,4.62,7.814c0.005,1.919-0.011,3.84,0.027,5.76c0.028,1.368,0.585,2.545,1.564,3.495
		c1.254,1.215,2.77,1.707,4.501,1.463c1.359-0.191,2.477-0.853,3.332-1.925c0.791-0.99,1.15-2.126,1.143-3.391
		c-0.012-2.37-0.002-4.742-0.004-7.112c0-0.104,0.002-0.207-0.01-0.312c-0.049-0.452-0.459-0.764-0.906-0.687
		c-0.43,0.074-0.689,0.404-0.689,0.896c-0.004,1.108-0.002,2.218,0,3.327c0,0.052,0.006,0.107,0.014,0.176
		c0.107,0,0.207-0.007,0.299,0c0.164,0.014,0.277,0.134,0.281,0.285c0.008,0.155-0.113,0.283-0.281,0.299
		c-0.055,0.007-0.109,0.007-0.164,0.007c-1.779-0.007-3.563-0.01-5.34-0.015c-0.03,0-0.061,0.003-0.091,0
		C8.052,10.073,7.92,9.965,7.923,9.774C7.926,9.591,8.055,9.485,8.289,9.48c0.071-0.001,0.141-0.001,0.22-0.001
		c0.002-0.06,0.006-0.096,0.006-0.132c0-0.249-0.004-0.5,0.004-0.75C8.522,8.41,8.642,8.294,8.812,8.294
		c0.17,0,0.283,0.118,0.295,0.307C9.11,8.673,9.107,8.747,9.108,8.819c0,0.218,0,0.433,0,0.66C9.672,9.479,10.207,9.479,10.76,9.479
		z M12.982,9.485c0-0.076,0-0.148,0-0.22c0-1.881,0-3.763-0.002-5.646c0-0.073,0.006-0.146-0.006-0.219
		c-0.037-0.316-0.195-0.55-0.488-0.675c-0.285-0.12-0.563-0.081-0.809,0.108c-0.242,0.186-0.316,0.442-0.316,0.74
		c0.002,1.907,0.002,3.813,0.002,5.719c0,0.059,0,0.119,0,0.191C11.908,9.485,12.434,9.485,12.982,9.485z"/>
</g>
</svg>
