<?xml version="1.0" encoding="utf-8"?>
<!-- Generator: Adobe Illustrator 16.0.0, SVG Export Plug-In . SVG Version: 6.00 Build 0)  -->
<!DOCTYPE svg PUBLIC "-//W3C//DTD SVG 1.1//EN" "http://www.w3.org/Graphics/SVG/1.1/DTD/svg11.dtd">
<svg version="1.1" id="Layer_1" xmlns="http://www.w3.org/2000/svg" xmlns:xlink="http://www.w3.org/1999/xlink" x="0px" y="0px"
	 width="20px" height="20px" viewBox="0 0 20 20" enable-background="new 0 0 20 20" xml:space="preserve">
<g>
	<path fill-rule="evenodd" clip-rule="evenodd" fill="#FFFFFF" d="M17.189,16.872c0.481,0,0.93,0,1.39,0c0,0.185,0,0.357,0,0.545
		c-6.188,0-12.376,0-18.579,0C0,12.33,0,7.244,0,2.145c0.177,0,0.35,0,0.546,0c0,4.901,0,9.802,0,14.715c0.445,0,0.868,0,1.322,0
		c0-0.072,0-0.146,0-0.218c0-0.767-0.001-1.536,0-2.306c0.002-0.662,0.438-1.111,1.098-1.119c0.687-0.006,1.375-0.005,2.062,0.003
		c0.166,0.003,0.33,0.048,0.518,0.076c0.003-0.054,0.01-0.119,0.01-0.183c0.001-0.851-0.001-1.701,0.001-2.551
		C5.561,9.79,5.98,9.373,6.754,9.373c0.656,0,1.313-0.002,1.968,0c0.632,0.003,1.086,0.458,1.09,1.088
		c0.001,0.444,0.001,0.887,0.005,1.332c0,0.011,0.008,0.021,0.014,0.031c0.533-0.13,2.561-0.13,3.1,0.004c0-0.135,0-0.264,0-0.394
		c0-0.825-0.001-1.649,0.001-2.474c0-0.683,0.443-1.127,1.124-1.128c0.662-0.001,1.324,0,1.987,0c0.704,0,1.146,0.441,1.146,1.146
		c0,2.543,0,5.087,0,7.631C17.189,16.688,17.189,16.767,17.189,16.872z M16.606,16.859c0.004-0.066,0.012-0.118,0.012-0.174
		c0.001-2.574,0.001-5.147-0.001-7.721c0-0.389-0.188-0.569-0.58-0.569c-0.636-0.002-1.274-0.001-1.911,0
		c-0.46,0-0.629,0.17-0.629,0.637c-0.001,2.541-0.001,5.084,0,7.627c0,0.065,0.007,0.133,0.01,0.2
		C14.55,16.859,15.572,16.859,16.606,16.859z M9.237,16.862c0.006-0.06,0.011-0.103,0.011-0.145c0.001-2.08,0.003-4.161-0.001-6.242
		c0-0.333-0.205-0.536-0.539-0.538c-0.67-0.002-1.338-0.002-2.006,0c-0.384,0-0.572,0.19-0.573,0.578
		c-0.001,2.05,0,4.099,0.001,6.146c0,0.067,0.007,0.131,0.011,0.2C7.181,16.862,8.198,16.862,9.237,16.862z M12.919,16.864
		c0.005-0.046,0.011-0.074,0.011-0.104c0.001-1.325,0.002-2.649-0.001-3.973c-0.001-0.296-0.215-0.49-0.524-0.49
		c-0.669-0.004-1.337-0.002-2.006-0.002c-0.396,0-0.586,0.188-0.586,0.584c0,1.261,0,2.523,0,3.783c0,0.067,0.007,0.133,0.009,0.202
		C10.862,16.864,11.88,16.864,12.919,16.864z M5.538,16.859c0.007-0.041,0.017-0.071,0.017-0.101c0.001-0.825,0.006-1.65,0-2.476
		c-0.002-0.308-0.205-0.494-0.515-0.496c-0.674-0.004-1.35-0.003-2.023,0c-0.396,0-0.582,0.187-0.582,0.585
		c-0.001,0.762,0,1.525,0,2.287c0,0.065,0.006,0.131,0.01,0.2C3.489,16.859,4.511,16.859,5.538,16.859z"/>
	<path fill-rule="evenodd" clip-rule="evenodd" fill="#FFFFFF" d="M3.854,9.794c-0.133-0.14-0.251-0.268-0.38-0.406
		c0.041-0.042,0.076-0.083,0.115-0.12C4.784,8.149,5.98,7.032,7.172,5.909C7.27,5.816,7.338,5.805,7.458,5.875
		c1.129,0.654,2.263,1.301,3.394,1.951c0.088,0.052,0.149,0.073,0.24-0.015c1.243-1.194,2.493-2.384,3.739-3.576
		c0.025-0.025,0.048-0.054,0.095-0.109c-0.383,0.053-0.729,0.101-1.098,0.152C13.8,4.089,13.773,3.914,13.744,3.72
		c0.779-0.112,1.542-0.221,2.335-0.334c-0.147,0.781-0.29,1.537-0.437,2.314c-0.187-0.034-0.36-0.066-0.554-0.101
		c0.059-0.321,0.112-0.625,0.178-0.986c-0.085,0.077-0.134,0.119-0.18,0.164c-1.289,1.229-2.579,2.457-3.862,3.691
		c-0.117,0.113-0.195,0.117-0.333,0.039C9.731,7.833,8.567,7.167,7.386,6.49C6.214,7.586,5.042,8.682,3.854,9.794z"/>
</g>
</svg>
