<?xml version="1.0" encoding="utf-8"?>
<!-- Generator: Adobe Illustrator 16.0.0, SVG Export Plug-In . SVG Version: 6.00 Build 0)  -->
<!DOCTYPE svg PUBLIC "-//W3C//DTD SVG 1.1//EN" "http://www.w3.org/Graphics/SVG/1.1/DTD/svg11.dtd">
<svg version="1.1" id="Layer_1" xmlns="http://www.w3.org/2000/svg" xmlns:xlink="http://www.w3.org/1999/xlink" x="0px" y="0px"
	 width="20px" height="20px" viewBox="0 0 20 20" enable-background="new 0 0 20 20" xml:space="preserve">
<g>
	<path fill-rule="evenodd" clip-rule="evenodd" fill="#FFFFFF" d="M3.539,18.249c-0.065-0.018-0.13-0.036-0.197-0.053
		c-1.029-0.244-1.431-1.49-0.736-2.288c0.053-0.06,0.107-0.118,0.165-0.174c2.073-2.075,4.148-4.148,6.221-6.223
		C9.107,9.396,9.23,9.302,9.405,9.302c0.212,0,0.368,0.093,0.464,0.279c0.099,0.19,0.071,0.372-0.053,0.54
		c-0.037,0.052-0.085,0.095-0.13,0.141c-2.071,2.07-4.141,4.14-6.209,6.211c-0.069,0.07-0.136,0.155-0.168,0.245
		c-0.075,0.201,0.05,0.42,0.256,0.476c0.061,0.017,0.125,0.03,0.188,0.03c0.538,0.003,1.075,0.01,1.613,0
		c0.241-0.006,0.428-0.15,0.599-0.307c0.138-0.125,0.266-0.262,0.396-0.394c0.205-0.208,0.452-0.312,0.743-0.316
		c0.085-0.002,0.17-0.001,0.255-0.003c0.307-0.007,0.518-0.219,0.525-0.524c0.003-0.145,0.006-0.287,0.015-0.431
		c0.021-0.357,0.3-0.544,0.511-0.779c0.202-0.227,0.455-0.299,0.74-0.309c0.08-0.003,0.16,0,0.24-0.001
		c0.326-0.004,0.555-0.217,0.533-0.543c-0.032-0.47,0.127-0.839,0.481-1.142c0.177-0.151,0.333-0.328,0.499-0.495
		c0.579-0.582,1.28-0.877,2.103-0.887c1.957-0.024,3.587-1.361,3.993-3.271c0.475-2.231-1.059-4.479-3.306-4.843
		C11.378,2.604,9.271,4.146,8.948,6.46C8.899,6.802,8.91,7.152,8.856,7.493c-0.096,0.605-0.376,1.125-0.81,1.56
		c-1.463,1.465-2.927,2.929-4.393,4.393c-0.23,0.23-0.543,0.243-0.753,0.034c-0.219-0.218-0.205-0.519,0.039-0.762
		c1.422-1.423,2.84-2.85,4.271-4.266c0.439-0.436,0.661-0.938,0.681-1.56c0.075-2.402,1.686-4.35,4.011-4.877
		c2.702-0.613,5.455,1.126,6.07,3.834c0.654,2.884-1.224,5.701-4.139,6.19c-0.371,0.063-0.752,0.059-1.126,0.104
		c-0.382,0.046-0.711,0.218-0.988,0.48c-0.208,0.197-0.409,0.404-0.612,0.607c-0.111,0.11-0.154,0.245-0.16,0.402
		c-0.01,0.216-0.007,0.44-0.063,0.646c-0.146,0.534-0.634,0.89-1.186,0.901c-0.134,0.002-0.266-0.002-0.4,0.001
		c-0.233,0.006-0.385,0.159-0.394,0.392c-0.007,0.207,0.005,0.418-0.031,0.62c-0.103,0.591-0.614,1.015-1.212,1.031
		c-0.042,0-0.086,0.005-0.127,0c-0.295-0.039-0.525,0.066-0.716,0.294c-0.34,0.401-0.798,0.607-1.298,0.729
		C4.859,18.249,4.199,18.249,3.539,18.249z"/>
	<path fill-rule="evenodd" clip-rule="evenodd" fill="#FFFFFF" d="M1.75,14.544c0.02-0.036,0.04-0.073,0.06-0.108
		c0.11-0.208,0.343-0.316,0.562-0.264c0.239,0.056,0.404,0.266,0.4,0.507c-0.003,0.235-0.166,0.436-0.4,0.491
		c-0.219,0.054-0.45-0.055-0.562-0.262c-0.02-0.035-0.04-0.071-0.06-0.109C1.75,14.714,1.75,14.63,1.75,14.544z"/>
	<path fill-rule="evenodd" clip-rule="evenodd" fill="#FFFFFF" d="M14.016,5.48c-0.003-0.287,0.224-0.517,0.512-0.517
		c0.277,0,0.506,0.224,0.51,0.502c0.004,0.284-0.229,0.519-0.512,0.518C14.247,5.983,14.019,5.757,14.016,5.48z"/>
</g>
</svg>
