<?xml version="1.0" encoding="utf-8"?>
<!-- Generator: Adobe Illustrator 16.0.0, SVG Export Plug-In . SVG Version: 6.00 Build 0)  -->
<!DOCTYPE svg PUBLIC "-//W3C//DTD SVG 1.1//EN" "http://www.w3.org/Graphics/SVG/1.1/DTD/svg11.dtd">
<svg version="1.1" id="Layer_1" xmlns="http://www.w3.org/2000/svg" xmlns:xlink="http://www.w3.org/1999/xlink" x="0px" y="0px"
	 width="20px" height="20px" viewBox="0 0 20 20" enable-background="new 0 0 20 20" xml:space="preserve">
<g>
	<path fill="#FFFFFF" d="M15.916,2.695H2.151C0.964,2.695,0,3.661,0,4.847V15.17c0,1.188,0.964,2.152,2.151,2.152h13.767
		c1.185,0,2.152-0.965,2.152-2.152V4.847C18.068,3.661,17.103,2.695,15.916,2.695z M17.207,15.17c0,0.713-0.581,1.291-1.291,1.291
		H2.151c-0.712,0-1.291-0.578-1.291-1.291V4.847c0-0.712,0.579-1.291,1.291-1.291h13.767c0.712,0,1.291,0.579,1.291,1.291V15.17
		H17.207z"/>
	<path fill="#FFFFFF" d="M10.379,6.073h4.786v0.861h-4.786V6.073z"/>
	<path fill="#FFFFFF" d="M10.379,9.515h4.786v0.861h-4.786V9.515z"/>
	<path fill="#FFFFFF" d="M3.065,12.955h12.1v0.859h-12.1V12.955z"/>
	<path fill="#FFFFFF" d="M4.087,10.787C4.451,10.042,5.191,9.58,6.023,9.58c0.796,0,1.524,0.437,1.9,1.141
		c0.167,0.313,0.251,0.654,0.251,1.008h0.859c0-0.492-0.123-0.979-0.353-1.413c-0.294-0.552-0.745-0.98-1.278-1.256
		C7.87,8.665,8.173,8.082,8.173,7.426c0-1.186-0.964-2.152-2.152-2.152C4.835,5.276,3.872,6.242,3.872,7.428
		c0,0.657,0.302,1.237,0.765,1.631c-0.563,0.292-1.032,0.754-1.324,1.354C3.112,10.826,3.01,11.268,3.01,11.73h0.862
		C3.872,11.4,3.943,11.084,4.087,10.787z M4.733,7.428c0-0.711,0.579-1.291,1.29-1.291c0.712,0,1.291,0.579,1.291,1.291
		S6.735,8.718,6.023,8.718C5.312,8.718,4.733,8.139,4.733,7.428z"/>
</g>
</svg>
