<?xml version="1.0" encoding="utf-8"?>
<!-- Generator: Adobe Illustrator 16.0.0, SVG Export Plug-In . SVG Version: 6.00 Build 0)  -->
<!DOCTYPE svg PUBLIC "-//W3C//DTD SVG 1.1//EN" "http://www.w3.org/Graphics/SVG/1.1/DTD/svg11.dtd">
<svg version="1.1" id="Layer_1" xmlns="http://www.w3.org/2000/svg" xmlns:xlink="http://www.w3.org/1999/xlink" x="0px" y="0px"
	 width="20px" height="20px" viewBox="0 0 20 20" enable-background="new 0 0 20 20" xml:space="preserve">
<g>
	<path fill-rule="evenodd" clip-rule="evenodd" fill="#FFFFFF" d="M10.146,1.667c0.205,0.024,0.409,0.049,0.613,0.074
		c1.206,0.146,2.277,0.614,3.208,1.392c1.106,0.923,1.821,2.092,2.109,3.505c0.294,1.443,0.112,2.836-0.596,4.133
		c-0.271,0.495-0.616,0.95-0.94,1.415c-1.377,1.984-2.758,3.97-4.144,5.949c-0.086,0.121-0.231,0.202-0.349,0.302
		c-0.044,0-0.087,0-0.131,0c-0.202-0.083-0.315-0.255-0.434-0.424c-1.419-2.042-2.833-4.087-4.268-6.116
		c-0.391-0.554-0.777-1.104-1.03-1.737c-1.399-3.51,0.736-7.527,4.427-8.315c0.328-0.071,0.666-0.093,1-0.139
		c0.069-0.01,0.137-0.025,0.207-0.038C9.928,1.667,10.036,1.667,10.146,1.667z M9.985,17.243c0.053-0.07,0.086-0.112,0.117-0.156
		c0.433-0.622,0.865-1.245,1.3-1.867c0.992-1.421,1.995-2.837,2.98-4.264c0.938-1.357,1.221-2.853,0.791-4.45
		c-0.76-2.819-3.54-4.471-6.415-3.836c-3.125,0.688-4.96,4.09-3.823,7.077c0.231,0.609,0.597,1.132,0.969,1.659
		c1.331,1.885,2.642,3.783,3.961,5.675C9.899,17.13,9.935,17.176,9.985,17.243z"/>
	<path fill-rule="evenodd" clip-rule="evenodd" fill="#FFFFFF" d="M9.879,4.583c1.846,0.003,3.31,1.477,3.314,3.313
		c0.005,1.813-1.518,3.305-3.333,3.297C8.06,11.185,6.534,9.7,6.551,7.85C6.568,6.044,8.049,4.579,9.879,4.583z M9.881,5.421
		C8.632,5.394,7.397,6.398,7.394,7.88c-0.002,1.395,1.106,2.461,2.48,2.473c1.355,0.012,2.478-1.111,2.479-2.458
		C12.354,6.524,11.251,5.421,9.881,5.421z"/>
</g>
</svg>
