<?xml version="1.0" encoding="utf-8"?>
<!-- Generator: Adobe Illustrator 16.0.0, SVG Export Plug-In . SVG Version: 6.00 Build 0)  -->
<!DOCTYPE svg PUBLIC "-//W3C//DTD SVG 1.1//EN" "http://www.w3.org/Graphics/SVG/1.1/DTD/svg11.dtd">
<svg version="1.1" id="Layer_1" xmlns="http://www.w3.org/2000/svg" xmlns:xlink="http://www.w3.org/1999/xlink" x="0px" y="0px"
	 width="25px" height="25px" viewBox="0 0 25 25" enable-background="new 0 0 25 25" xml:space="preserve">
<g>
	<path fill-rule="evenodd" clip-rule="evenodd" fill="#FFFFFF" d="M21.064,20.992c-6.117,0-12.233,0-18.348,0
		c-0.041-0.017-0.082-0.036-0.125-0.044c-1.523-0.283-2.589-1.526-2.589-3.026c0-3.531-0.007-7.062,0.004-10.594
		c0.005-1.259,0.627-2.183,1.778-2.758c0.289-0.144,0.62-0.21,0.933-0.312c6.115,0,12.23,0,18.348,0
		c0.045,0.016,0.095,0.039,0.145,0.047c1.474,0.273,2.569,1.552,2.569,3c0,3.539,0,7.078,0,10.617c0,1.27-0.786,2.39-2.008,2.857
		C21.54,20.869,21.298,20.923,21.064,20.992z M1.654,5.711c0.042,0.046,0.066,0.074,0.093,0.1c3.325,3.216,6.649,6.433,9.975,9.649
		c0.277,0.267,0.502,0.263,0.778,0c1.278-1.232,2.555-2.466,3.831-3.698c1.86-1.795,3.716-3.593,5.575-5.387
		c0.146-0.142,0.31-0.27,0.47-0.408c-0.521-0.583-1.127-0.837-1.855-0.837c-4.544,0.001-9.09,0-13.634,0
		c-1.223,0-2.446-0.002-3.668,0C2.63,5.132,2.111,5.313,1.654,5.711z M16.003,13.336c-0.064,0.06-0.12,0.106-0.173,0.159
		c-0.906,0.877-1.812,1.756-2.723,2.632c-0.589,0.566-1.406,0.559-1.993-0.01c-0.949-0.919-1.9-1.837-2.85-2.757
		c-0.062-0.058-0.125-0.115-0.155-0.144c-2.179,2.106-4.338,4.194-6.505,6.29c0.455,0.416,1.018,0.612,1.666,0.612
		c4.68-0.002,9.358-0.002,14.038-0.002c1.088,0,2.175,0.006,3.262,0c0.674-0.002,1.243-0.24,1.692-0.71
		C20.176,17.383,18.096,15.368,16.003,13.336z M7.36,12.556c-2.076-2.013-4.167-4.042-6.307-6.117
		c-0.055,0.32-0.146,0.61-0.146,0.899c-0.01,3.525-0.009,7.05-0.001,10.576c0,0.253,0.073,0.504,0.116,0.773
		C3.166,16.613,5.271,14.577,7.36,12.556z M22.812,6.788c-2.063,1.997-4.091,3.958-6.088,5.888c2.004,1.938,4.022,3.891,6.068,5.867
		c0.028-0.222,0.081-0.448,0.083-0.678c0.004-3.495,0.004-6.993,0-10.491C22.875,7.188,22.836,7.002,22.812,6.788z"/>
</g>
</svg>
