<?xml version="1.0" encoding="utf-8"?>
<!-- Generator: Adobe Illustrator 16.0.0, SVG Export Plug-In . SVG Version: 6.00 Build 0)  -->
<!DOCTYPE svg PUBLIC "-//W3C//DTD SVG 1.1//EN" "http://www.w3.org/Graphics/SVG/1.1/DTD/svg11.dtd">
<svg version="1.1" id="Layer_1" xmlns="http://www.w3.org/2000/svg" xmlns:xlink="http://www.w3.org/1999/xlink" x="0px" y="0px"
	 width="20px" height="20px" viewBox="2.5 2.5 20 20" enable-background="new 2.5 2.5 20 20" xml:space="preserve">
<path fill="#FFFFFF" d="M20.453,22.5c-0.378,0-0.73,0-1.095,0c-0.073-2.438-1.041-4.428-2.986-5.903
	c-1.442-1.095-3.094-1.56-4.892-1.452c-3.856,0.225-6.968,3.549-6.904,7.346c-0.357,0-0.715,0-1.072,0
	c-0.109-2.744,1.602-6.575,5.76-8.043c-1.982-1.21-3.037-2.943-2.956-5.282c0.054-1.559,0.696-2.873,1.845-3.917
	c2.413-2.193,6.111-1.927,8.19,0.594c1.125,1.369,1.521,2.958,1.181,4.696c-0.337,1.737-1.332,3.014-2.873,3.91
	c1.732,0.605,3.128,1.627,4.19,3.093C19.908,19.017,20.432,20.667,20.453,22.5z M11.953,4.875C9.424,4.895,7.384,6.951,7.4,9.48
	c0.009,2.488,2.089,4.544,4.582,4.532c2.516-0.013,4.582-2.094,4.557-4.581C16.505,6.898,14.457,4.857,11.953,4.875z"/>
</svg>
