<?xml version="1.0" encoding="utf-8"?>
<!-- Generator: Adobe Illustrator 16.0.0, SVG Export Plug-In . SVG Version: 6.00 Build 0)  -->
<!DOCTYPE svg PUBLIC "-//W3C//DTD SVG 1.1//EN" "http://www.w3.org/Graphics/SVG/1.1/DTD/svg11.dtd">
<svg version="1.1" id="Layer_1" xmlns="http://www.w3.org/2000/svg" xmlns:xlink="http://www.w3.org/1999/xlink" x="0px" y="0px"
	 width="25px" height="25px" viewBox="0 0 25 25" enable-background="new 0 0 25 25" xml:space="preserve">
<g>
	<path fill-rule="evenodd" clip-rule="evenodd" fill="#29B572" d="M13.602,1.798c0.195,0.014,0.391,0.026,0.586,0.042
		c2.621,0.218,4.865,1.259,6.716,3.123c1.541,1.551,2.512,3.415,2.888,5.568c0.997,5.703-2.602,10.845-7.824,12.183
		c-5.64,1.444-11.409-1.964-12.875-7.599c-0.16-0.615-0.261-1.24-0.309-1.874c-0.001-0.018-0.004-0.036-0.007-0.069
		c-0.027,0.021-0.045,0.034-0.06,0.049c-0.28,0.279-0.562,0.558-0.839,0.841c-0.148,0.151-0.317,0.219-0.521,0.146
		c-0.215-0.077-0.331-0.241-0.353-0.469c-0.017-0.171,0.04-0.314,0.162-0.438c0.573-0.569,1.142-1.142,1.714-1.712
		c0.245-0.244,0.577-0.243,0.819-0.001c0.568,0.567,1.138,1.135,1.704,1.705c0.31,0.312,0.195,0.814-0.208,0.926
		c-0.197,0.055-0.354-0.023-0.49-0.157c-0.249-0.247-0.495-0.495-0.743-0.742c-0.026-0.025-0.053-0.05-0.105-0.065
		c0.028,0.228,0.049,0.455,0.085,0.68c0.27,1.67,0.926,3.172,1.995,4.484c1.487,1.824,3.386,2.979,5.703,3.407
		c4.944,0.913,9.723-2.142,10.991-7.009c0.938-3.602-0.348-7.473-3.253-9.803c-1.284-1.031-2.734-1.696-4.355-1.985
		c-0.542-0.097-1.089-0.14-1.64-0.144c-0.209-0.001-0.37-0.08-0.475-0.269c-0.131-0.237,0.009-0.603,0.212-0.732
		c0.046-0.029,0.092-0.057,0.137-0.086C13.371,1.798,13.486,1.798,13.602,1.798z"/>
	<path fill-rule="evenodd" clip-rule="evenodd" fill="#29B572" d="M12.855,17.281c-0.058,0-0.099,0-0.14,0
		c-0.569,0-1.139,0.002-1.708-0.001c-0.35-0.002-0.584-0.288-0.523-0.633c0.043-0.246,0.238-0.409,0.507-0.414
		c0.28-0.004,0.562-0.001,0.842-0.001c0.308,0,0.615-0.001,0.923,0.001c0.062,0,0.101-0.007,0.1-0.085
		c-0.002-0.938-0.001-1.877-0.002-2.815c0-0.018-0.005-0.036-0.012-0.074c-0.928,0.083-1.73-0.17-2.332-0.91
		c-0.41-0.504-0.594-1.089-0.557-1.737c0.042-0.738,0.359-1.343,0.926-1.813c0.567-0.47,1.232-0.62,1.968-0.558
		c0.003-0.058,0.008-0.102,0.008-0.146c0-0.419-0.003-0.838,0.002-1.257c0.002-0.23,0.146-0.422,0.353-0.491
		c0.211-0.07,0.452-0.01,0.577,0.175c0.064,0.096,0.108,0.225,0.111,0.339c0.014,0.411,0.006,0.823,0.006,1.234
		c0,0.042,0,0.083,0,0.136c0.055,0,0.096,0,0.137,0c0.543,0,1.084-0.002,1.627,0.001c0.363,0.001,0.604,0.313,0.518,0.665
		c-0.058,0.236-0.25,0.381-0.522,0.382C15.129,9.282,14.595,9.28,14.06,9.28c-0.045,0-0.091,0-0.146,0c0,0.991,0,1.972,0,2.973
		c0.921-0.074,1.713,0.188,2.316,0.908c0.39,0.464,0.586,1.006,0.579,1.614c-0.007,0.766-0.31,1.401-0.887,1.901
		c-0.575,0.5-1.261,0.659-2.019,0.596c0,0.063,0,0.104,0,0.145c0,0.431,0.003,0.861-0.002,1.292c-0.002,0.259-0.2,0.478-0.448,0.507
		c-0.265,0.031-0.508-0.122-0.577-0.372c-0.019-0.065-0.021-0.138-0.021-0.206c-0.002-0.407-0.001-0.815-0.001-1.223
		C12.855,17.374,12.855,17.333,12.855,17.281z M13.91,16.251c0.711,0.068,1.305-0.111,1.663-0.758
		c0.307-0.553,0.25-1.106-0.122-1.612c-0.383-0.522-0.93-0.636-1.541-0.575C13.91,14.289,13.91,15.268,13.91,16.251z M12.855,9.245
		c-0.198,0.01-0.383,0.007-0.563,0.029c-0.688,0.084-1.237,0.68-1.292,1.388c-0.051,0.667,0.408,1.319,1.076,1.493
		c0.208,0.054,0.433,0.041,0.649,0.064c0.11,0.012,0.133-0.033,0.132-0.136c-0.004-0.898-0.002-1.797-0.002-2.696
		C12.855,9.347,12.855,9.306,12.855,9.245z"/>
	<path fill-rule="evenodd" clip-rule="evenodd" fill="#29B572" d="M7.157,4.988C6.854,4.99,6.618,4.761,6.616,4.462
		C6.614,4.174,6.862,3.931,7.158,3.931c0.287,0,0.521,0.238,0.526,0.533C7.689,4.755,7.457,4.987,7.157,4.988z"/>
	<path fill-rule="evenodd" clip-rule="evenodd" fill="#29B572" d="M5.041,6.024c0.001-0.282,0.254-0.517,0.554-0.514
		c0.277,0.003,0.511,0.253,0.51,0.547c0,0.278-0.244,0.525-0.528,0.51C5.264,6.55,5.051,6.36,5.041,6.024z"/>
	<path fill-rule="evenodd" clip-rule="evenodd" fill="#29B572" d="M11.191,3.11c-0.333-0.003-0.57-0.226-0.569-0.534
		c0.001-0.294,0.238-0.513,0.552-0.51c0.292,0.002,0.515,0.246,0.511,0.555C11.68,2.893,11.458,3.112,11.191,3.11z"/>
	<path fill-rule="evenodd" clip-rule="evenodd" fill="#29B572" d="M9.063,2.79c0.296,0.006,0.514,0.224,0.509,0.509
		C9.567,3.601,9.339,3.832,9.049,3.828c-0.288-0.003-0.508-0.239-0.5-0.534C8.557,2.998,8.774,2.784,9.063,2.79z"/>
	<path fill-rule="evenodd" clip-rule="evenodd" fill="#29B572" d="M4.103,10.02c-0.006,0.255-0.275,0.511-0.533,0.506
		c-0.268-0.005-0.522-0.276-0.515-0.549C3.063,9.718,3.337,9.47,3.607,9.479C3.86,9.486,4.109,9.757,4.103,10.02z"/>
	<path fill-rule="evenodd" clip-rule="evenodd" fill="#29B572" d="M4.884,7.915c-0.002,0.28-0.236,0.508-0.521,0.507
		C4.07,8.42,3.845,8.207,3.845,7.93c0-0.298,0.229-0.534,0.521-0.534C4.66,7.396,4.885,7.622,4.884,7.915z"/>
</g>
</svg>
