<?xml version="1.0" encoding="utf-8"?>
<!-- Generator: Adobe Illustrator 16.0.0, SVG Export Plug-In . SVG Version: 6.00 Build 0)  -->
<!DOCTYPE svg PUBLIC "-//W3C//DTD SVG 1.1//EN" "http://www.w3.org/Graphics/SVG/1.1/DTD/svg11.dtd">
<svg version="1.1" id="Layer_1" xmlns="http://www.w3.org/2000/svg" xmlns:xlink="http://www.w3.org/1999/xlink" x="0px" y="0px"
	 width="20px" height="20px" viewBox="0 0 20 20" enable-background="new 0 0 20 20" xml:space="preserve">
<g>
	<path fill-rule="evenodd" clip-rule="evenodd" fill="#FFFFFF" d="M2.082,5.799C2.08,5.639,2.131,5.5,2.228,5.376
		c0.333-0.423,0.685-0.83,1.053-1.223c0.62-0.661,1.282-1.276,2.003-1.827c0.167-0.128,0.349-0.168,0.551-0.112
		C5.985,2.256,6.098,2.35,6.175,2.481C6.41,2.875,6.654,3.263,6.873,3.666c0.475,0.873,0.869,1.782,1.201,2.719
		C8.128,6.54,8.146,6.693,8.085,6.85C8.04,6.97,7.963,7.062,7.863,7.14c-0.41,0.317-0.816,0.639-1.229,0.951
		C6.538,8.163,6.522,8.236,6.536,8.343c0.11,0.896,0.411,1.726,0.871,2.498c0.672,1.131,1.553,2.057,2.693,2.727
		c0.419,0.248,0.864,0.439,1.336,0.568c0.082,0.023,0.138,0.016,0.2-0.047c0.374-0.371,0.755-0.734,1.131-1.102
		c0.174-0.17,0.374-0.238,0.611-0.172c0.05,0.012,0.098,0.035,0.143,0.061c1.251,0.695,2.417,1.512,3.476,2.48
		c0.02,0.02,0.04,0.039,0.06,0.059c0.258,0.252,0.266,0.627,0.009,0.885c-0.153,0.156-0.313,0.307-0.477,0.453
		c-0.907,0.814-1.892,1.523-2.942,2.145c-0.175,0.104-0.352,0.127-0.549,0.078c-0.714-0.18-1.396-0.449-2.055-0.771
		c-1.438-0.701-2.719-1.625-3.874-2.729c-1.498-1.43-2.729-3.059-3.66-4.912C2.962,9.477,2.543,8.344,2.284,7.154
		C2.19,6.73,2.122,6.301,2.086,5.868C2.084,5.844,2.083,5.821,2.082,5.799z M5.582,3.347c-0.02,0.005-0.029,0.005-0.034,0.009
		C5.51,3.385,5.473,3.415,5.436,3.446c-0.85,0.71-1.613,1.505-2.316,2.361C3.067,5.871,3.049,5.935,3.063,6.014
		c0.059,0.338,0.104,0.678,0.178,1.012C3.521,8.291,4,9.482,4.622,10.616c0.828,1.51,1.871,2.857,3.107,4.057
		c1.116,1.082,2.356,1.986,3.757,2.666c0.538,0.262,1.092,0.484,1.669,0.645c0.057,0.016,0.103,0.016,0.155-0.018
		c0.976-0.588,1.893-1.256,2.733-2.025c0.022-0.021,0.041-0.047,0.068-0.076c-0.882-0.77-1.83-1.432-2.838-2.014
		c-0.037,0.035-0.067,0.061-0.096,0.088c-0.374,0.363-0.749,0.727-1.124,1.092c-0.129,0.125-0.279,0.17-0.459,0.137
		c-0.577-0.107-1.122-0.309-1.638-0.58c-1.828-0.967-3.112-2.43-3.908-4.328c-0.298-0.71-0.469-1.454-0.498-2.227
		C5.544,7.815,5.618,7.649,5.793,7.517c0.401-0.304,0.794-0.615,1.19-0.923c0.034-0.026,0.067-0.055,0.109-0.089
		C6.685,5.402,6.191,4.346,5.582,3.347z"/>
	<path fill-rule="evenodd" clip-rule="evenodd" fill="#FFFFFF" d="M18.326,10.589c-0.006,0.199-0.012,0.398-0.02,0.596
		c-0.011,0.309-0.268,0.492-0.509,0.477c-0.275-0.02-0.465-0.252-0.45-0.547c0.058-1.062-0.091-2.093-0.486-3.08
		c-0.86-2.153-2.377-3.634-4.58-4.393c-0.59-0.204-1.203-0.307-1.826-0.346c-0.198-0.012-0.342-0.106-0.422-0.285
		c-0.076-0.172-0.059-0.343,0.056-0.498c0.103-0.139,0.246-0.199,0.417-0.188c2.061,0.134,3.832,0.92,5.303,2.369
		c1.18,1.163,1.945,2.561,2.311,4.177C18.247,9.436,18.311,10.01,18.326,10.589z"/>
	<path fill-rule="evenodd" clip-rule="evenodd" fill="#FFFFFF" d="M15.21,10.229c-0.007,0.162-0.012,0.277-0.019,0.393
		c-0.019,0.273-0.235,0.475-0.495,0.463c-0.263-0.012-0.463-0.229-0.463-0.5c0-0.139,0.006-0.277,0.001-0.417
		C14.171,8.41,12.9,6.897,11.179,6.532c-0.187-0.04-0.378-0.056-0.568-0.077c-0.273-0.029-0.464-0.25-0.445-0.522
		c0.017-0.245,0.227-0.464,0.509-0.447c1.106,0.067,2.076,0.467,2.898,1.207c0.846,0.759,1.364,1.704,1.558,2.823
		C15.175,9.766,15.187,10.021,15.21,10.229z"/>
</g>
</svg>
