<?xml version="1.0" encoding="utf-8"?>
<!-- Generator: Adobe Illustrator 16.0.0, SVG Export Plug-In . SVG Version: 6.00 Build 0)  -->
<!DOCTYPE svg PUBLIC "-//W3C//DTD SVG 1.1//EN" "http://www.w3.org/Graphics/SVG/1.1/DTD/svg11.dtd">
<svg version="1.1" id="Layer_1" xmlns="http://www.w3.org/2000/svg" xmlns:xlink="http://www.w3.org/1999/xlink" x="0px" y="0px"
	 width="15px" height="15px" viewBox="0 0 15 15" enable-background="new 0 0 15 15" xml:space="preserve">
<path fill-rule="evenodd" clip-rule="evenodd" fill="#FFFFFF" d="M2.476,6.993c0-1.485,0.001-2.97,0-4.456
	c0-0.468,0.103-0.892,0.484-1.203c0.516-0.42,1.065-0.445,1.702-0.077c1.894,1.09,3.786,2.184,5.678,3.276
	c0.721,0.417,1.442,0.83,2.159,1.25c0.714,0.418,0.978,1.139,0.618,1.829c-0.129,0.244-0.357,0.477-0.601,0.619
	c-2.633,1.537-5.273,3.061-7.919,4.578c-0.827,0.475-1.739,0.152-2.036-0.709c-0.068-0.195-0.081-0.418-0.082-0.627
	C2.474,9.98,2.476,8.488,2.476,6.993z M12.025,7.017C9.258,5.419,6.547,3.853,3.803,2.269c0,3.189,0,6.315,0,9.499
	C6.55,10.18,9.258,8.617,12.025,7.017z"/>
</svg>
