<?xml version="1.0" encoding="utf-8"?>
<!-- Generator: Adobe Illustrator 16.0.0, SVG Export Plug-In . SVG Version: 6.00 Build 0)  -->
<!DOCTYPE svg PUBLIC "-//W3C//DTD SVG 1.1//EN" "http://www.w3.org/Graphics/SVG/1.1/DTD/svg11.dtd">
<svg version="1.1" id="Layer_1" xmlns="http://www.w3.org/2000/svg" xmlns:xlink="http://www.w3.org/1999/xlink" x="0px" y="0px"
	 width="20px" height="20px" viewBox="-2.5 -2.5 20 20" enable-background="new -2.5 -2.5 20 20" xml:space="preserve">
<g>
	<g id="unknown-3">
		<path fill="#FFFFFF" d="M8.289,3.679H6.486v2.703H3.783v1.805h2.704v2.701h1.803V8.188h2.705V6.382H8.289V3.679z M7.388-1.727
			c-4.956,0-9.011,4.057-9.011,9.011c0,4.954,4.055,9.01,9.011,9.01c4.957,0,9.011-4.056,9.011-9.01
			C16.399,2.33,12.342-1.727,7.388-1.727z M7.388,14.491c-3.966,0-7.209-3.244-7.209-7.207c0-3.966,3.243-7.207,7.209-7.207
			c3.963,0,7.208,3.241,7.208,7.207C14.595,11.247,11.352,14.491,7.388,14.491z"/>
	</g>
</g>
</svg>
