<?xml version="1.0" encoding="utf-8"?>
<!-- Generator: Adobe Illustrator 16.0.0, SVG Export Plug-In . SVG Version: 6.00 Build 0)  -->
<!DOCTYPE svg PUBLIC "-//W3C//DTD SVG 1.1//EN" "http://www.w3.org/Graphics/SVG/1.1/DTD/svg11.dtd">
<svg version="1.1" id="Layer_1" xmlns="http://www.w3.org/2000/svg" xmlns:xlink="http://www.w3.org/1999/xlink" x="0px" y="0px"
	 width="20px" height="20px" viewBox="0 0 20 20" enable-background="new 0 0 20 20" xml:space="preserve">
<path fill="#FFFFFF" d="M10.008,1C9.727,1.005,9.501,1.237,9.505,1.518v1.3H7.462v2.043H4.909v4.013l-3.575,0.67v0.424
	c0,3.057,1.376,5.045,2.179,5.951c-0.526,0.181-1.004,0.411-1.414,0.65c-0.25,0.132-0.343,0.441-0.21,0.691
	c0.133,0.247,0.442,0.343,0.691,0.21c0.011-0.007,0.021-0.013,0.032-0.021c0.765-0.441,1.757-0.842,2.808-0.842
	c2.177,0,4.037,1.71,4.183,1.849c0.099,0.128,0.254,0.205,0.417,0.201c0,0,0,0,0.001,0c0.161,0,0.313-0.075,0.41-0.203
	c0.148-0.14,2.008-1.847,4.182-1.847c1.052,0,2.044,0.4,2.809,0.842c0.238,0.151,0.554,0.08,0.704-0.158s0.079-0.554-0.159-0.704
	c-0.011-0.008-0.021-0.014-0.032-0.019c-0.41-0.239-0.888-0.47-1.414-0.65c0.803-0.906,2.179-2.895,2.179-5.951V9.544l-3.574-0.67
	V4.861h-2.555V2.818h-2.042v-1.3C10.531,1.236,10.306,1.004,10.023,1C10.019,1,10.013,1,10.008,1z M8.484,3.839H9.93
	c0.055,0.009,0.112,0.009,0.168,0h1.451v2.043h2.553v2.8l-4.086-0.766L5.931,8.682v-2.8h2.554V3.839z M10.016,4.861
	c-0.281,0-0.511,0.228-0.511,0.51c0,0.283,0.229,0.511,0.511,0.511c0.283,0,0.512-0.229,0.512-0.511
	C10.527,5.089,10.299,4.861,10.016,4.861z M10.016,8.956l7.602,1.424c-0.169,3.412-2.087,5.125-2.247,5.263
	c-0.246-0.033-0.498-0.056-0.758-0.056c-2.145,0-3.883,1.26-4.597,1.865c-0.713-0.605-2.451-1.865-4.596-1.865
	c-0.259,0-0.511,0.022-0.757,0.056c-0.16-0.138-2.078-1.851-2.247-5.263L10.016,8.956z M10.016,9.458
	c-0.281,0-0.511,0.229-0.511,0.51c0,0.283,0.229,0.511,0.511,0.511c0.283,0,0.512-0.228,0.512-0.511
	C10.527,9.687,10.299,9.458,10.016,9.458z M6.443,10.989c-0.029,0-0.058,0.002-0.085,0.007l-1.532,0.256
	c-0.279,0.041-0.473,0.3-0.433,0.58c0.041,0.277,0.3,0.471,0.579,0.432c0.007-0.002,0.014-0.002,0.021-0.004l1.532-0.255
	c0.279-0.045,0.47-0.306,0.427-0.583C6.912,11.172,6.696,10.987,6.443,10.989z M13.573,10.989c-0.282,0.005-0.505,0.24-0.498,0.521
	c0.005,0.248,0.188,0.455,0.432,0.494l1.533,0.255c0.276,0.053,0.543-0.13,0.596-0.407c0.052-0.278-0.13-0.545-0.407-0.597
	c-0.007-0.002-0.015-0.002-0.021-0.004l-1.532-0.256C13.642,10.991,13.607,10.987,13.573,10.989z M10.016,11.5
	c-0.281,0-0.511,0.229-0.511,0.513c0,0.281,0.229,0.511,0.511,0.511c0.283,0,0.512-0.229,0.512-0.511
	C10.527,11.729,10.299,11.5,10.016,11.5z M10.016,13.542c-0.281,0-0.511,0.229-0.511,0.513c0,0.281,0.229,0.511,0.511,0.511
	c0.283,0,0.512-0.229,0.512-0.511C10.527,13.771,10.299,13.542,10.016,13.542z M10.016,15.587c-0.281,0-0.511,0.228-0.511,0.511
	c0,0.281,0.229,0.511,0.511,0.511c0.283,0,0.512-0.229,0.512-0.511C10.527,15.814,10.299,15.587,10.016,15.587z"/>
</svg>
