<?xml version="1.0" encoding="utf-8"?>
<!-- Generator: Adobe Illustrator 16.0.0, SVG Export Plug-In . SVG Version: 6.00 Build 0)  -->
<!DOCTYPE svg PUBLIC "-//W3C//DTD SVG 1.1//EN" "http://www.w3.org/Graphics/SVG/1.1/DTD/svg11.dtd">
<svg version="1.1" id="Layer_1" xmlns="http://www.w3.org/2000/svg" xmlns:xlink="http://www.w3.org/1999/xlink" x="0px" y="0px"
	 width="20px" height="20px" viewBox="-2.5 -2.5 20 20" enable-background="new -2.5 -2.5 20 20" xml:space="preserve">
<g>
	<path fill-rule="evenodd" clip-rule="evenodd" fill="#FFFFFF" d="M14.271,1.899c0.209-0.87,0.402-1.674,0.612-2.551
		c0.489,0.105,0.951,0.204,1.481,0.318c-0.396,1.706-0.783,3.371-1.187,5.102c-1.695-0.393-3.346-0.776-5.094-1.181
		c0.112-0.487,0.218-0.946,0.337-1.472c0.783,0.172,1.521,0.335,2.304,0.507c-1.94-2.383-6.48-3.409-9.832-0.565
		c-3.207,2.721-3.378,7.653-0.387,10.597c3.003,2.953,8.169,2.863,11.055-1.1c0.395,0.26,0.791,0.523,1.187,0.787
		c-0.932,1.867-4.207,4.365-8.361,3.838c-3.589-0.453-6.621-3.262-7.381-6.957C-1.742,5.592,0,1.794,3.24-0.049
		C6.334-1.81,10.886-1.785,14.271,1.899z"/>
</g>
</svg>
