<?xml version="1.0" encoding="utf-8"?>
<!-- Generator: Adobe Illustrator 16.0.0, SVG Export Plug-In . SVG Version: 6.00 Build 0)  -->
<!DOCTYPE svg PUBLIC "-//W3C//DTD SVG 1.1//EN" "http://www.w3.org/Graphics/SVG/1.1/DTD/svg11.dtd">
<svg version="1.1" id="Layer_1" xmlns="http://www.w3.org/2000/svg" xmlns:xlink="http://www.w3.org/1999/xlink" x="0px" y="0px"
	 width="20px" height="20px" viewBox="0 0 20 20" enable-background="new 0 0 20 20" xml:space="preserve">
<g>
	<path fill-rule="evenodd" clip-rule="evenodd" fill="#FFFFFF" d="M13.872,12.815c0.656,0.656,1.308,1.304,1.955,1.953
		c0.784,0.782,1.564,1.565,2.35,2.348c0.234,0.232,0.33,0.509,0.246,0.83c-0.161,0.618-0.907,0.823-1.376,0.372
		c-0.434-0.417-0.854-0.849-1.279-1.274c-0.988-0.989-1.976-1.978-2.963-2.969c-0.031-0.028-0.063-0.057-0.102-0.094
		c-1.8,1.333-3.79,1.77-5.962,1.212c-1.648-0.421-2.954-1.368-3.91-2.774c-1.918-2.823-1.451-6.612,1.084-8.9
		c2.506-2.262,6.321-2.34,8.912-0.203C15.598,5.601,16.218,9.799,13.872,12.815z M8.479,3.412C5.606,3.423,3.294,5.752,3.305,8.624
		c0.011,2.846,2.348,5.159,5.198,5.152c2.855-0.007,5.176-2.346,5.166-5.203C13.658,5.725,11.32,3.4,8.479,3.412z"/>
</g>
</svg>
