<?xml version="1.0" encoding="utf-8"?>
<!-- Generator: Adobe Illustrator 16.0.0, SVG Export Plug-In . SVG Version: 6.00 Build 0)  -->
<!DOCTYPE svg PUBLIC "-//W3C//DTD SVG 1.1//EN" "http://www.w3.org/Graphics/SVG/1.1/DTD/svg11.dtd">
<svg version="1.1" id="Layer_1" xmlns="http://www.w3.org/2000/svg" xmlns:xlink="http://www.w3.org/1999/xlink" x="0px" y="0px"
	 width="20px" height="20px" viewBox="0 0 20 20" enable-background="new 0 0 20 20" xml:space="preserve">
<g>
	<path fill="#FFFFFF" d="M15.337,6.55l0.639-0.639l0.059,0.06c0.083,0.083,0.194,0.128,0.306,0.128s0.222-0.041,0.306-0.128
		c0.169-0.17,0.169-0.444,0-0.614l-0.729-0.732c-0.17-0.17-0.444-0.17-0.613,0c-0.17,0.17-0.17,0.444,0,0.614l0.058,0.06
		l-0.645,0.645c-0.996-0.871-2.222-1.478-3.575-1.721V2.06h0.733c0.238,0,0.433-0.194,0.433-0.434c0-0.239-0.194-0.434-0.433-0.434
		h-1.167H8.958H7.792c-0.239,0-0.434,0.194-0.434,0.434c0,0.24,0.194,0.434,0.434,0.434h0.732v2.162
		c-3.47,0.622-6.118,3.661-6.118,7.308c0,4.095,3.332,7.427,7.426,7.427c4.096,0,7.426-3.332,7.426-7.427
		C17.259,9.614,16.53,7.869,15.337,6.55z M9.392,2.06h0.882v2.058C10.127,4.11,9.982,4.103,9.833,4.103S9.539,4.11,9.392,4.117V2.06
		L9.392,2.06z M9.833,18.085c-3.616,0-6.559-2.942-6.559-6.56c0-3.615,2.943-6.558,6.559-6.558c3.616,0,6.559,2.943,6.559,6.558
		C16.392,15.143,13.449,18.085,9.833,18.085z"/>
	<path fill="#FFFFFF" d="M11.44,9.156l-1.739,1.739L6.734,7.928c-0.17-0.17-0.444-0.17-0.615,0c-0.17,0.17-0.17,0.444,0,0.614
		l3.307,3.307c0.084,0.084,0.195,0.129,0.306,0.129c0.111,0,0.222-0.042,0.305-0.129C10.086,11.8,12.05,9.77,12.05,9.77
		c0.17-0.17,0.17-0.444,0-0.614C11.885,8.99,11.609,8.99,11.44,9.156z"/>
</g>
</svg>
