<?xml version="1.0" encoding="utf-8"?>
<!-- Generator: Adobe Illustrator 16.0.0, SVG Export Plug-In . SVG Version: 6.00 Build 0)  -->
<!DOCTYPE svg PUBLIC "-//W3C//DTD SVG 1.1//EN" "http://www.w3.org/Graphics/SVG/1.1/DTD/svg11.dtd">
<svg version="1.1" id="Layer_1" xmlns="http://www.w3.org/2000/svg" xmlns:xlink="http://www.w3.org/1999/xlink" x="0px" y="0px"
	 width="20px" height="20px" viewBox="0 0 20 20" enable-background="new 0 0 20 20" xml:space="preserve">
<g>
	<path fill="#FFFFFF" d="M13.65,12.891c0-0.28,0-0.503-0.001-0.519L13.65,12.891C13.649,12.891,13.65,12.891,13.65,12.891z"/>
	<path fill="#FFFFFF" d="M17.947,1.833H7.801C7.519,2.031,7.159,2.175,6.977,2.441c-0.229,0.332-0.41,0.757-0.436,1.154
		c-0.062,0.953-0.02,1.913-0.02,2.934H5.317c-0.731,0-1.465,0.034-2.193-0.008C2.065,6.458,1.329,6.864,0.945,7.867
		c0,2.529,0,2.467,0,4.996c0.3,0.368,0.561,0.784,0.918,1.085c0.205,0.173,0.28,0.306,0.277,0.547
		c-0.009,0.762-0.023,1.524,0.008,2.285c0.01,0.242,0.159,0.479,0.245,0.717c0.212-0.114,0.468-0.186,0.627-0.351
		c0.804-0.833,1.597-1.678,2.363-2.545c0.278-0.313,0.566-0.438,0.984-0.432c1.828,0.021,3.656,0.016,5.484,0.005
		c1.061-0.007,1.783-0.732,1.796-1.773c0-0.024,0-0.032,0-0.028v-0.257c0.511-0.13,0.828,0.025,1.134,0.375
		c0.772,0.884,1.579,1.736,2.392,2.58c0.149,0.152,0.397,0.208,0.6,0.307c0.087-0.206,0.239-0.41,0.246-0.621
		c0.029-0.806,0.003-1.614,0.021-2.422c0.006-0.147,0.095-0.359,0.213-0.428c0.685-0.405,0.986-0.98,0.978-1.777
		c-0.019-2.01-0.051-4.021,0.011-6.031C19.278,3.024,18.926,2.276,17.947,1.833z M12.885,12.319
		c-0.003,0.057-0.005,0.143-0.01,0.272c-0.018,0.563-0.368,0.821-0.997,0.821c-1.934,0.004-3.869,0.018-5.803-0.01
		c-0.459-0.006-0.765,0.142-1.058,0.477c-0.652,0.741-1.337,1.452-2.069,2.239c-0.023-0.192-0.047-0.302-0.048-0.413
		c-0.004-0.594-0.004-1.188-0.002-1.781c0.001-0.273-0.083-0.453-0.386-0.522c-0.627-0.146-0.809-0.38-0.811-1.02
		c-0.005-2.209-0.006-1.825,0-4.034c0.002-0.76,0.294-1.042,1.06-1.045c1.232-0.004,2.464,0,3.761,0c0,0.429,0,0.834,0,1.239
		c0,0.594-0.006,1.188,0.002,1.782c0.012,0.987,0.75,1.736,1.735,1.743c1.355,0.011,2.71,0.002,4.068,0.002h0.559
		C12.885,12.179,12.885,12.26,12.885,12.319C12.901,11.979,12.888,12.783,12.885,12.319z M18.472,10.14
		c-0.002,0.775-0.116,0.943-0.863,1.164c-0.283,0.084-0.337,0.268-0.336,0.515c0,0.696,0,1.392,0,2.089
		c-0.035,0.015-0.07,0.029-0.105,0.044c-0.713-0.767-1.438-1.524-2.133-2.309c-0.215-0.241-0.438-0.33-0.748-0.329
		c-1.934,0.008-3.865,0.005-5.798,0.004c-0.955-0.001-1.211-0.262-1.211-1.229c-0.001-2.101-0.001-4.2,0-6.299
		c0-0.936,0.263-1.201,1.192-1.201c2.938-0.001,5.875-0.001,8.813,0c0.926,0,1.188,0.267,1.189,1.206
		C18.472,5.909,18.472,8.025,18.472,10.14z"/>
	<path fill-rule="evenodd" clip-rule="evenodd" fill="#FFFFFF" d="M12.888,7.302c-1.08,0-2.16,0-3.24,0.001
		c-0.29,0-0.588-0.016-0.586-0.399c0.002-0.358,0.29-0.375,0.561-0.375c2.22,0,4.442,0,6.662,0c0.271,0,0.559,0.018,0.564,0.374
		c0.003,0.383-0.297,0.401-0.586,0.401C15.138,7.302,14.012,7.302,12.888,7.302z"/>
	<path fill-rule="evenodd" clip-rule="evenodd" fill="#FFFFFF" d="M12.987,8.616c1.095,0,2.189,0,3.286-0.001
		c0.29,0,0.587,0.025,0.574,0.41c-0.013,0.355-0.305,0.366-0.573,0.366c-2.221,0-4.439,0-6.661,0c-0.276,0-0.553-0.031-0.552-0.386
		c0-0.353,0.271-0.39,0.55-0.39C10.735,8.616,11.861,8.616,12.987,8.616z"/>
	<path fill-rule="evenodd" clip-rule="evenodd" fill="#FFFFFF" d="M12.938,5.21c-1.11,0-2.221-0.001-3.33,0.001
		c-0.282,0-0.546-0.039-0.546-0.39c0-0.367,0.287-0.374,0.556-0.374c2.219-0.001,4.439-0.001,6.66,0c0.266,0,0.562-0.001,0.57,0.36
		c0.008,0.385-0.288,0.404-0.58,0.404C15.158,5.208,14.049,5.21,12.938,5.21z"/>
</g>
</svg>
