<?xml version="1.0" encoding="utf-8"?>
<!-- Generator: Adobe Illustrator 16.0.0, SVG Export Plug-In . SVG Version: 6.00 Build 0)  -->
<!DOCTYPE svg PUBLIC "-//W3C//DTD SVG 1.1//EN" "http://www.w3.org/Graphics/SVG/1.1/DTD/svg11.dtd">
<svg version="1.1" id="Layer_1" xmlns="http://www.w3.org/2000/svg" xmlns:xlink="http://www.w3.org/1999/xlink" x="0px" y="0px"
	 width="20px" height="20px" viewBox="0 0 20 20" enable-background="new 0 0 20 20" xml:space="preserve">
<g>
	<path fill-rule="evenodd" clip-rule="evenodd" fill="#FFFFFF" d="M18.123,1.199c0.376,0.224,0.485,0.555,0.479,0.986
		c-0.015,2.255-0.011,4.508-0.002,6.761c0.002,0.641-0.213,1.161-0.671,1.609c-0.854,0.83-1.692,1.675-2.522,2.527
		c-0.111,0.116-0.191,0.316-0.195,0.479c-0.019,0.936-0.009,1.874-0.009,2.809c-0.002,0.611-0.211,0.902-0.652,0.911
		c-0.453,0.008-0.674-0.291-0.674-0.925c-0.001-3.155-0.003-6.311,0.003-9.467c0.003-0.264-0.042-0.462-0.265-0.658
		c-0.571-0.499-0.562-1.387-0.027-1.919c0.529-0.527,1.374-0.526,1.902,0.002c0.538,0.537,0.544,1.411-0.027,1.917
		c-0.208,0.184-0.266,0.363-0.265,0.623c0.01,1.352,0.005,2.704,0.005,4.055c0,0.121,0,0.243,0,0.363
		c0.03,0.016,0.062,0.031,0.089,0.046c0.369-0.375,0.702-0.794,1.111-1.117c0.69-0.542,0.904-1.198,0.868-2.071
		c-0.069-1.697-0.021-3.396-0.021-5.096c0-0.138,0-0.276,0-0.459c-0.138-0.008-0.26-0.021-0.38-0.021c-1.999-0.001-4-0.008-6,0.01
		c-0.217,0.002-0.489,0.096-0.638,0.244c-2.53,2.506-5.043,5.027-7.561,7.544c-0.056,0.056-0.104,0.118-0.134,0.15
		c2.257,2.257,4.502,4.5,6.775,6.772c1.01-1.011,2.05-2.052,3.161-3.166c0,0.674,0.008,1.246-0.008,1.818
		c-0.001,0.085-0.099,0.176-0.17,0.248c-0.822,0.826-1.647,1.654-2.477,2.477c-0.385,0.383-0.728,0.385-1.109,0.004
		c-2.519-2.516-5.037-5.033-7.553-7.551c-0.394-0.395-0.391-0.736,0.009-1.136C3.896,7.24,6.62,4.504,9.364,1.79
		c0.266-0.263,0.658-0.398,0.992-0.591C12.944,1.199,15.534,1.199,18.123,1.199z"/>
</g>
</svg>
