<?xml version="1.0" encoding="utf-8"?>
<!-- Generator: Adobe Illustrator 16.0.0, SVG Export Plug-In . SVG Version: 6.00 Build 0)  -->
<!DOCTYPE svg PUBLIC "-//W3C//DTD SVG 1.1//EN" "http://www.w3.org/Graphics/SVG/1.1/DTD/svg11.dtd">
<svg version="1.1" id="Layer_1" xmlns="http://www.w3.org/2000/svg" xmlns:xlink="http://www.w3.org/1999/xlink" x="0px" y="0px"
	 width="20px" height="20px" viewBox="0 0 20 20" enable-background="new 0 0 20 20" xml:space="preserve">
<g>
	<path fill-rule="evenodd" clip-rule="evenodd" fill="#FFFFFF" d="M15.986,12.233c-1.055-1.064-2.14-2.16-3.241-3.271
		c0.645,0,1.32,0,1.986,0c0.192-1.45-1.076-3.435-2.672-4.281c-1.72-0.912-4.357-0.916-6.121,1.06
		C5.813,5.646,5.686,5.55,5.531,5.434C6.214,4.557,7.083,4.035,8.106,3.75c3.568-0.994,7.147,1.619,7.25,5.278
		c0.013,0.39-0.109,0.519-0.486,0.482c-0.254-0.026-0.515-0.005-0.729-0.005c0.642,0.643,1.276,1.28,1.899,1.904
		c0.562-0.569,1.195-1.211,1.864-1.886c-0.413,0-0.819,0-1.251,0c-0.093-3.174-1.467-5.527-4.391-6.709
		C9.339,1.632,6.718,2.369,4.414,4.522C4.383,4.502,4.316,4.46,4.256,4.413C4.192,4.362,4.133,4.305,4.075,4.252
		c0.897-1.438,3.903-2.897,6.777-2.433c2.91,0.469,6.004,2.846,6.339,7.12c0.685,0,1.378,0,2.084,0
		C18.144,10.072,17.056,11.162,15.986,12.233z"/>
	<path fill-rule="evenodd" clip-rule="evenodd" fill="#FFFFFF" d="M0,9.505c1.151-1.153,2.224-2.228,3.258-3.264
		c1.08,1.075,2.168,2.158,3.272,3.256c-0.629,0-1.283,0-1.921,0c-0.315,1.24,0.958,3.339,2.503,4.219
		c1.955,1.112,4.662,0.86,6.24-0.991c0.133,0.099,0.268,0.198,0.429,0.316c-0.837,1.056-1.918,1.62-3.188,1.815
		C7.455,15.34,4.67,13.377,4.04,10.265C3.785,9.004,3.785,9.004,5.023,8.948c0.055-0.002,0.108-0.015,0.122-0.018
		C4.52,8.319,3.88,7.693,3.262,7.089C2.716,7.64,2.089,8.271,1.416,8.951c0.28,0,0.559,0.017,0.835-0.005
		C2.582,8.92,2.7,9.021,2.709,9.378c0.083,3.255,2.235,5.938,5.412,6.626c2.495,0.543,4.706-0.101,6.554-1.894
		c0.049-0.049,0.099-0.096,0.149-0.144c0.01-0.008,0.025-0.008,0.073-0.023c0.108,0.087,0.232,0.188,0.383,0.309
		c-0.603,0.73-1.322,1.25-2.132,1.655c-4.51,2.255-9.792-0.246-10.855-5.141c-0.061-0.283-0.125-0.573-0.122-0.859
		C2.178,9.558,2.016,9.493,1.716,9.5C1.169,9.515,0.622,9.505,0,9.505z"/>
	<path fill-rule="evenodd" clip-rule="evenodd" fill="#FFFFFF" d="M9.628,11.887c-1.497,0.001-2.689-1.185-2.693-2.676
		C6.93,7.728,8.134,6.522,9.62,6.521c1.483-0.001,2.696,1.204,2.699,2.681C12.321,10.684,11.117,11.886,9.628,11.887z M9.629,7.087
		C8.463,7.084,7.521,8.021,7.512,9.19c-0.008,1.173,0.919,2.121,2.086,2.132c1.186,0.011,2.15-0.943,2.147-2.121
		C11.741,8.042,10.789,7.088,9.629,7.087z"/>
</g>
</svg>
