<?xml version="1.0" encoding="utf-8"?>
<!-- Generator: Adobe Illustrator 16.0.0, SVG Export Plug-In . SVG Version: 6.00 Build 0)  -->
<!DOCTYPE svg PUBLIC "-//W3C//DTD SVG 1.1//EN" "http://www.w3.org/Graphics/SVG/1.1/DTD/svg11.dtd">
<svg version="1.1" id="Layer_1" xmlns="http://www.w3.org/2000/svg" xmlns:xlink="http://www.w3.org/1999/xlink" x="0px" y="0px"
	 width="20px" height="20px" viewBox="0 0 20 20" enable-background="new 0 0 20 20" xml:space="preserve">
<g>
	<path fill-rule="evenodd" clip-rule="evenodd" fill="#FFFFFF" d="M0.514,5.894C0.563,5.899,0.611,5.909,0.66,5.909
		c1.427,0,2.854,0,4.281,0c0.043,0,0.086-0.005,0.149-0.009c0-1.235,0-2.466,0-3.709c1.321,0,2.621,0,3.936,0
		c0,0.486,0,0.971,0,1.474c-0.98,0-1.958,0-2.95,0c0,0.75,0,1.484,0,2.234c0.059,0.004,0.118,0.01,0.178,0.01
		c4.373,0,8.747,0,13.122,0c0.067,0,0.135-0.01,0.202-0.015c0,3.55,0,7.099,0,10.649c-0.074-0.004-0.148-0.011-0.223-0.011
		c-6.219,0-12.438,0-18.657,0c-0.062,0-0.123,0.007-0.185,0.011C0.514,12.992,0.514,9.443,0.514,5.894z M6.062,6.89
		c0,0.073,0,0.134,0,0.196c0,0.775,0.003,1.551-0.003,2.326c0,0.13,0.037,0.188,0.163,0.24c0.681,0.287,1.061,0.808,1.101,1.544
		c0.049,0.893-0.611,1.686-1.468,1.806c-0.904,0.127-1.728-0.406-1.965-1.276c-0.236-0.862,0.214-1.752,1.064-2.083
		c0.115-0.044,0.144-0.1,0.143-0.215C5.09,8.689,5.093,7.951,5.093,7.213c0-0.104,0-0.209,0-0.323c-1.209,0-2.404,0-3.599,0
		c0,2.894,0,5.776,0,8.659c5.711,0,11.407,0,17.108,0c0-2.894,0-5.771,0-8.659C14.423,6.89,10.25,6.89,6.062,6.89z M5.555,12.052
		c0.431,0.014,0.795-0.329,0.805-0.757c0.009-0.433-0.328-0.789-0.759-0.803s-0.79,0.326-0.804,0.758
		C4.783,11.682,5.12,12.037,5.555,12.052z"/>
</g>
</svg>
